  0
SECTION
  2
HEADER
  9
$ANGBASE
  50
0.0
  9
$ANGDIR
  70
1
  9
$MEASUREMENT
  70
1
  0
ENDSEC
  0
SECTION
  2
TABLES
  0
TABLE
  2
LTYPE
  70
4
  0
LTYPE
  5
40F
  2
CONTINUOUS
  70
0
  3
Solid line
  72
65
  73
0
  40
0.0
  0
LTYPE
  5
410
  2
DASHDOT
 70
0
  3
Dash Dot ____ _ ____ _
 72
65
 73
4
 40
2.0
 49
1.25
 49
-0.25
 49
0.25
 49
-0.25
  0
LTYPE
  5
411
  2
DASHED
 70
0
  3
Dashed __ __ __ __ __
 72
65
 73
2
 40
0.75
 49
0.5
 49
-0.25
  0
LTYPE
  5
43B
  2
DOTTED
 70
0
  3
Dotted .  .  .  .
 72
65
 73
2
 40
0.2
 49
0.0
 49
-0.2
  0
ENDTAB
  0
TABLE
  2
STYLE
  70
4
  0
STYLE
  2
KICAD
  70
0
  40
0
  41
1
  42
1
  50
0
  71
0
  3
isocp.shx
  0
STYLE
  2
KICADB
  70
0
  40
0
  41
1
  42
1
  50
0
  71
0
  3
isocp.shx
  0
STYLE
  2
KICADI
  70
0
  40
0
  41
1
  42
1
  50
15
  71
0
  3
isocp.shx
  0
STYLE
  2
KICADBI
  70
0
  40
0
  41
1
  42
1
  50
15
  71
0
  3
isocp.shx
  0
ENDTAB
  0
TABLE
  2
LAYER
  70
1
  0
LAYER
  2
BLACK
  70
0
  62
7
  6
CONTINUOUS
  0
ENDTAB
  0
ENDSEC
  0
SECTION
  2
ENTITIES
0
LINE
8
BLACK
6
CONTINUOUS
10
96.29
20
-54.005
11
99.49
21
-57.205
0
LINE
8
BLACK
6
CONTINUOUS
10
99.49
20
-54.005
11
96.29
21
-57.205
0
LINE
8
BLACK
6
CONTINUOUS
10
96.29
20
-132.005
11
99.49
21
-135.205
0
LINE
8
BLACK
6
CONTINUOUS
10
99.49
20
-132.005
11
96.29
21
-135.205
0
LINE
8
BLACK
6
CONTINUOUS
10
174.29
20
-54.005
11
177.49
21
-57.205
0
LINE
8
BLACK
6
CONTINUOUS
10
177.49
20
-54.005
11
174.29
21
-57.205
0
LINE
8
BLACK
6
CONTINUOUS
10
174.29
20
-132.005
11
177.49
21
-135.205
0
LINE
8
BLACK
6
CONTINUOUS
10
177.49
20
-132.005
11
174.29
21
-135.205
0
LINE
8
BLACK
6
CONTINUOUS
10
2.47619
20
-2.93476
11
2.47619
21
-0.934761
0
LINE
8
BLACK
6
CONTINUOUS
10
2.47619
20
-0.934761
11
2.95238
21
-0.934761
0
LINE
8
BLACK
6
CONTINUOUS
10
2.95238
20
-0.934761
11
3.23809
21
-1.03
0
LINE
8
BLACK
6
CONTINUOUS
10
3.23809
20
-1.03
11
3.42857
21
-1.22048
0
LINE
8
BLACK
6
CONTINUOUS
10
3.42857
20
-1.22048
11
3.52381
21
-1.41095
0
LINE
8
BLACK
6
CONTINUOUS
10
3.52381
20
-1.41095
11
3.61905
21
-1.7919
0
LINE
8
BLACK
6
CONTINUOUS
10
3.61905
20
-1.7919
11
3.61905
21
-2.07762
0
LINE
8
BLACK
6
CONTINUOUS
10
3.61905
20
-2.07762
11
3.52381
21
-2.45857
0
LINE
8
BLACK
6
CONTINUOUS
10
3.52381
20
-2.45857
11
3.42857
21
-2.64905
0
LINE
8
BLACK
6
CONTINUOUS
10
3.42857
20
-2.64905
11
3.23809
21
-2.83952
0
LINE
8
BLACK
6
CONTINUOUS
10
3.23809
20
-2.83952
11
2.95238
21
-2.93476
0
LINE
8
BLACK
6
CONTINUOUS
10
2.95238
20
-2.93476
11
2.47619
21
-2.93476
0
LINE
8
BLACK
6
CONTINUOUS
10
4.47619
20
-2.93476
11
4.47619
21
-1.60143
0
LINE
8
BLACK
6
CONTINUOUS
10
4.47619
20
-1.98238
11
4.57143
21
-1.7919
0
LINE
8
BLACK
6
CONTINUOUS
10
4.57143
20
-1.7919
11
4.66667
21
-1.69667
0
LINE
8
BLACK
6
CONTINUOUS
10
4.66667
20
-1.69667
11
4.85714
21
-1.60143
0
LINE
8
BLACK
6
CONTINUOUS
10
4.85714
20
-1.60143
11
5.04762
21
-1.60143
0
LINE
8
BLACK
6
CONTINUOUS
10
5.71428
20
-2.93476
11
5.71428
21
-1.60143
0
LINE
8
BLACK
6
CONTINUOUS
10
5.71428
20
-0.934761
11
5.61905
21
-1.03
0
LINE
8
BLACK
6
CONTINUOUS
10
5.61905
20
-1.03
11
5.71428
21
-1.12524
0
LINE
8
BLACK
6
CONTINUOUS
10
5.71428
20
-1.12524
11
5.80952
21
-1.03
0
LINE
8
BLACK
6
CONTINUOUS
10
5.80952
20
-1.03
11
5.71428
21
-0.934761
0
LINE
8
BLACK
6
CONTINUOUS
10
5.71428
20
-0.934761
11
5.71428
21
-1.12524
0
LINE
8
BLACK
6
CONTINUOUS
10
6.95238
20
-2.93476
11
6.7619
21
-2.83952
0
LINE
8
BLACK
6
CONTINUOUS
10
6.7619
20
-2.83952
11
6.66667
21
-2.64905
0
LINE
8
BLACK
6
CONTINUOUS
10
6.66667
20
-2.64905
11
6.66667
21
-0.934761
0
LINE
8
BLACK
6
CONTINUOUS
10
8
20
-2.93476
11
7.80952
21
-2.83952
0
LINE
8
BLACK
6
CONTINUOUS
10
7.80952
20
-2.83952
11
7.71428
21
-2.64905
0
LINE
8
BLACK
6
CONTINUOUS
10
7.71428
20
-2.64905
11
7.71428
21
-0.934761
0
LINE
8
BLACK
6
CONTINUOUS
10
9.9619
20
-2.93476
11
9.9619
21
-0.934761
0
LINE
8
BLACK
6
CONTINUOUS
10
9.9619
20
-0.934761
11
10.6286
21
-2.36333
0
LINE
8
BLACK
6
CONTINUOUS
10
10.6286
20
-2.36333
11
11.2952
21
-0.934761
0
LINE
8
BLACK
6
CONTINUOUS
10
11.2952
20
-0.934761
11
11.2952
21
-2.93476
0
LINE
8
BLACK
6
CONTINUOUS
10
13.1048
20
-2.93476
11
13.1048
21
-1.88714
0
LINE
8
BLACK
6
CONTINUOUS
10
13.1048
20
-1.88714
11
13.0095
21
-1.69667
0
LINE
8
BLACK
6
CONTINUOUS
10
13.0095
20
-1.69667
11
12.819
21
-1.60143
0
LINE
8
BLACK
6
CONTINUOUS
10
12.819
20
-1.60143
11
12.4381
21
-1.60143
0
LINE
8
BLACK
6
CONTINUOUS
10
12.4381
20
-1.60143
11
12.2476
21
-1.69667
0
LINE
8
BLACK
6
CONTINUOUS
10
13.1048
20
-2.83952
11
12.9143
21
-2.93476
0
LINE
8
BLACK
6
CONTINUOUS
10
12.9143
20
-2.93476
11
12.4381
21
-2.93476
0
LINE
8
BLACK
6
CONTINUOUS
10
12.4381
20
-2.93476
11
12.2476
21
-2.83952
0
LINE
8
BLACK
6
CONTINUOUS
10
12.2476
20
-2.83952
11
12.1524
21
-2.64905
0
LINE
8
BLACK
6
CONTINUOUS
10
12.1524
20
-2.64905
11
12.1524
21
-2.45857
0
LINE
8
BLACK
6
CONTINUOUS
10
12.1524
20
-2.45857
11
12.2476
21
-2.26809
0
LINE
8
BLACK
6
CONTINUOUS
10
12.2476
20
-2.26809
11
12.4381
21
-2.17286
0
LINE
8
BLACK
6
CONTINUOUS
10
12.4381
20
-2.17286
11
12.9143
21
-2.17286
0
LINE
8
BLACK
6
CONTINUOUS
10
12.9143
20
-2.17286
11
13.1048
21
-2.07762
0
LINE
8
BLACK
6
CONTINUOUS
10
14.0571
20
-1.60143
11
14.0571
21
-3.60143
0
LINE
8
BLACK
6
CONTINUOUS
10
14.0571
20
-1.69667
11
14.2476
21
-1.60143
0
LINE
8
BLACK
6
CONTINUOUS
10
14.2476
20
-1.60143
11
14.6286
21
-1.60143
0
LINE
8
BLACK
6
CONTINUOUS
10
14.6286
20
-1.60143
11
14.819
21
-1.69667
0
LINE
8
BLACK
6
CONTINUOUS
10
14.819
20
-1.69667
11
14.9143
21
-1.7919
0
LINE
8
BLACK
6
CONTINUOUS
10
14.9143
20
-1.7919
11
15.0095
21
-1.98238
0
LINE
8
BLACK
6
CONTINUOUS
10
15.0095
20
-1.98238
11
15.0095
21
-2.55381
0
LINE
8
BLACK
6
CONTINUOUS
10
15.0095
20
-2.55381
11
14.9143
21
-2.74429
0
LINE
8
BLACK
6
CONTINUOUS
10
14.9143
20
-2.74429
11
14.819
21
-2.83952
0
LINE
8
BLACK
6
CONTINUOUS
10
14.819
20
-2.83952
11
14.6286
21
-2.93476
0
LINE
8
BLACK
6
CONTINUOUS
10
14.6286
20
-2.93476
11
14.2476
21
-2.93476
0
LINE
8
BLACK
6
CONTINUOUS
10
14.2476
20
-2.93476
11
14.0571
21
-2.83952
0
LINE
8
BLACK
6
CONTINUOUS
10
15.8667
20
-2.74429
11
15.9619
21
-2.83952
0
LINE
8
BLACK
6
CONTINUOUS
10
15.9619
20
-2.83952
11
15.8667
21
-2.93476
0
LINE
8
BLACK
6
CONTINUOUS
10
15.8667
20
-2.93476
11
15.7714
21
-2.83952
0
LINE
8
BLACK
6
CONTINUOUS
10
15.7714
20
-2.83952
11
15.8667
21
-2.74429
0
LINE
8
BLACK
6
CONTINUOUS
10
15.8667
20
-2.74429
11
15.8667
21
-2.93476
0
LINE
8
BLACK
6
CONTINUOUS
10
15.8667
20
-1.69667
11
15.9619
21
-1.7919
0
LINE
8
BLACK
6
CONTINUOUS
10
15.9619
20
-1.7919
11
15.8667
21
-1.88714
0
LINE
8
BLACK
6
CONTINUOUS
10
15.8667
20
-1.88714
11
15.7714
21
-1.7919
0
LINE
8
BLACK
6
CONTINUOUS
10
15.7714
20
-1.7919
11
15.8667
21
-1.69667
0
LINE
8
BLACK
6
CONTINUOUS
10
15.8667
20
-1.69667
11
15.8667
21
-1.88714
0
LINE
8
BLACK
6
CONTINUOUS
10
-2
20
-5.4
11
0
21
-7.4
0
LINE
8
BLACK
6
CONTINUOUS
10
0
20
-5.4
11
-2
21
-7.4
0
LINE
8
BLACK
6
CONTINUOUS
10
2.28571
20
-5.13476
11
3.52381
21
-5.13476
0
LINE
8
BLACK
6
CONTINUOUS
10
3.52381
20
-5.13476
11
2.85714
21
-5.89667
0
LINE
8
BLACK
6
CONTINUOUS
10
2.85714
20
-5.89667
11
3.14286
21
-5.89667
0
LINE
8
BLACK
6
CONTINUOUS
10
3.14286
20
-5.89667
11
3.33333
21
-5.9919
0
LINE
8
BLACK
6
CONTINUOUS
10
3.33333
20
-5.9919
11
3.42857
21
-6.08714
0
LINE
8
BLACK
6
CONTINUOUS
10
3.42857
20
-6.08714
11
3.52381
21
-6.27762
0
LINE
8
BLACK
6
CONTINUOUS
10
3.52381
20
-6.27762
11
3.52381
21
-6.75381
0
LINE
8
BLACK
6
CONTINUOUS
10
3.52381
20
-6.75381
11
3.42857
21
-6.94428
0
LINE
8
BLACK
6
CONTINUOUS
10
3.42857
20
-6.94428
11
3.33333
21
-7.03952
0
LINE
8
BLACK
6
CONTINUOUS
10
3.33333
20
-7.03952
11
3.14286
21
-7.13476
0
LINE
8
BLACK
6
CONTINUOUS
10
3.14286
20
-7.13476
11
2.57143
21
-7.13476
0
LINE
8
BLACK
6
CONTINUOUS
10
2.57143
20
-7.13476
11
2.38095
21
-7.03952
0
LINE
8
BLACK
6
CONTINUOUS
10
2.38095
20
-7.03952
11
2.28571
21
-6.94428
0
LINE
8
BLACK
6
CONTINUOUS
10
4.38095
20
-6.94428
11
4.47619
21
-7.03952
0
LINE
8
BLACK
6
CONTINUOUS
10
4.47619
20
-7.03952
11
4.38095
21
-7.13476
0
LINE
8
BLACK
6
CONTINUOUS
10
4.38095
20
-7.13476
11
4.28571
21
-7.03952
0
LINE
8
BLACK
6
CONTINUOUS
10
4.28571
20
-7.03952
11
4.38095
21
-6.94428
0
LINE
8
BLACK
6
CONTINUOUS
10
4.38095
20
-6.94428
11
4.38095
21
-7.13476
0
LINE
8
BLACK
6
CONTINUOUS
10
5.23809
20
-5.32524
11
5.33333
21
-5.23
0
LINE
8
BLACK
6
CONTINUOUS
10
5.33333
20
-5.23
11
5.52381
21
-5.13476
0
LINE
8
BLACK
6
CONTINUOUS
10
5.52381
20
-5.13476
11
6
21
-5.13476
0
LINE
8
BLACK
6
CONTINUOUS
10
6
20
-5.13476
11
6.19048
21
-5.23
0
LINE
8
BLACK
6
CONTINUOUS
10
6.19048
20
-5.23
11
6.28571
21
-5.32524
0
LINE
8
BLACK
6
CONTINUOUS
10
6.28571
20
-5.32524
11
6.38095
21
-5.51571
0
LINE
8
BLACK
6
CONTINUOUS
10
6.38095
20
-5.51571
11
6.38095
21
-5.70619
0
LINE
8
BLACK
6
CONTINUOUS
10
6.38095
20
-5.70619
11
6.28571
21
-5.9919
0
LINE
8
BLACK
6
CONTINUOUS
10
6.28571
20
-5.9919
11
5.14286
21
-7.13476
0
LINE
8
BLACK
6
CONTINUOUS
10
5.14286
20
-7.13476
11
6.38095
21
-7.13476
0
LINE
8
BLACK
6
CONTINUOUS
10
7.61905
20
-5.13476
11
7.80952
21
-5.13476
0
LINE
8
BLACK
6
CONTINUOUS
10
7.80952
20
-5.13476
11
8
21
-5.23
0
LINE
8
BLACK
6
CONTINUOUS
10
8
20
-5.23
11
8.09524
21
-5.32524
0
LINE
8
BLACK
6
CONTINUOUS
10
8.09524
20
-5.32524
11
8.19048
21
-5.51571
0
LINE
8
BLACK
6
CONTINUOUS
10
8.19048
20
-5.51571
11
8.28571
21
-5.89667
0
LINE
8
BLACK
6
CONTINUOUS
10
8.28571
20
-5.89667
11
8.28571
21
-6.37286
0
LINE
8
BLACK
6
CONTINUOUS
10
8.28571
20
-6.37286
11
8.19048
21
-6.75381
0
LINE
8
BLACK
6
CONTINUOUS
10
8.19048
20
-6.75381
11
8.09524
21
-6.94428
0
LINE
8
BLACK
6
CONTINUOUS
10
8.09524
20
-6.94428
11
8
21
-7.03952
0
LINE
8
BLACK
6
CONTINUOUS
10
8
20
-7.03952
11
7.80952
21
-7.13476
0
LINE
8
BLACK
6
CONTINUOUS
10
7.80952
20
-7.13476
11
7.61905
21
-7.13476
0
LINE
8
BLACK
6
CONTINUOUS
10
7.61905
20
-7.13476
11
7.42857
21
-7.03952
0
LINE
8
BLACK
6
CONTINUOUS
10
7.42857
20
-7.03952
11
7.33333
21
-6.94428
0
LINE
8
BLACK
6
CONTINUOUS
10
7.33333
20
-6.94428
11
7.23809
21
-6.75381
0
LINE
8
BLACK
6
CONTINUOUS
10
7.23809
20
-6.75381
11
7.14286
21
-6.37286
0
LINE
8
BLACK
6
CONTINUOUS
10
7.14286
20
-6.37286
11
7.14286
21
-5.89667
0
LINE
8
BLACK
6
CONTINUOUS
10
7.14286
20
-5.89667
11
7.23809
21
-5.51571
0
LINE
8
BLACK
6
CONTINUOUS
10
7.23809
20
-5.51571
11
7.33333
21
-5.32524
0
LINE
8
BLACK
6
CONTINUOUS
10
7.33333
20
-5.32524
11
7.42857
21
-5.23
0
LINE
8
BLACK
6
CONTINUOUS
10
7.42857
20
-5.23
11
7.61905
21
-5.13476
0
LINE
8
BLACK
6
CONTINUOUS
10
9.52381
20
-5.13476
11
9.71429
21
-5.13476
0
LINE
8
BLACK
6
CONTINUOUS
10
9.71429
20
-5.13476
11
9.90476
21
-5.23
0
LINE
8
BLACK
6
CONTINUOUS
10
9.90476
20
-5.23
11
10
21
-5.32524
0
LINE
8
BLACK
6
CONTINUOUS
10
10
20
-5.32524
11
10.0952
21
-5.51571
0
LINE
8
BLACK
6
CONTINUOUS
10
10.0952
20
-5.51571
11
10.1905
21
-5.89667
0
LINE
8
BLACK
6
CONTINUOUS
10
10.1905
20
-5.89667
11
10.1905
21
-6.37286
0
LINE
8
BLACK
6
CONTINUOUS
10
10.1905
20
-6.37286
11
10.0952
21
-6.75381
0
LINE
8
BLACK
6
CONTINUOUS
10
10.0952
20
-6.75381
11
10
21
-6.94428
0
LINE
8
BLACK
6
CONTINUOUS
10
10
20
-6.94428
11
9.90476
21
-7.03952
0
LINE
8
BLACK
6
CONTINUOUS
10
9.90476
20
-7.03952
11
9.71429
21
-7.13476
0
LINE
8
BLACK
6
CONTINUOUS
10
9.71429
20
-7.13476
11
9.52381
21
-7.13476
0
LINE
8
BLACK
6
CONTINUOUS
10
9.52381
20
-7.13476
11
9.33333
21
-7.03952
0
LINE
8
BLACK
6
CONTINUOUS
10
9.33333
20
-7.03952
11
9.23809
21
-6.94428
0
LINE
8
BLACK
6
CONTINUOUS
10
9.23809
20
-6.94428
11
9.14286
21
-6.75381
0
LINE
8
BLACK
6
CONTINUOUS
10
9.14286
20
-6.75381
11
9.04762
21
-6.37286
0
LINE
8
BLACK
6
CONTINUOUS
10
9.04762
20
-6.37286
11
9.04762
21
-5.89667
0
LINE
8
BLACK
6
CONTINUOUS
10
9.04762
20
-5.89667
11
9.14286
21
-5.51571
0
LINE
8
BLACK
6
CONTINUOUS
10
9.14286
20
-5.51571
11
9.23809
21
-5.32524
0
LINE
8
BLACK
6
CONTINUOUS
10
9.23809
20
-5.32524
11
9.33333
21
-5.23
0
LINE
8
BLACK
6
CONTINUOUS
10
9.33333
20
-5.23
11
9.52381
21
-5.13476
0
LINE
8
BLACK
6
CONTINUOUS
10
11.0476
20
-7.13476
11
11.0476
21
-5.80143
0
LINE
8
BLACK
6
CONTINUOUS
10
11.0476
20
-5.9919
11
11.1429
21
-5.89667
0
LINE
8
BLACK
6
CONTINUOUS
10
11.1429
20
-5.89667
11
11.3333
21
-5.80143
0
LINE
8
BLACK
6
CONTINUOUS
10
11.3333
20
-5.80143
11
11.619
21
-5.80143
0
LINE
8
BLACK
6
CONTINUOUS
10
11.619
20
-5.80143
11
11.8095
21
-5.89667
0
LINE
8
BLACK
6
CONTINUOUS
10
11.8095
20
-5.89667
11
11.9048
21
-6.08714
0
LINE
8
BLACK
6
CONTINUOUS
10
11.9048
20
-6.08714
11
11.9048
21
-7.13476
0
LINE
8
BLACK
6
CONTINUOUS
10
11.9048
20
-6.08714
11
12
21
-5.89667
0
LINE
8
BLACK
6
CONTINUOUS
10
12
20
-5.89667
11
12.1905
21
-5.80143
0
LINE
8
BLACK
6
CONTINUOUS
10
12.1905
20
-5.80143
11
12.4762
21
-5.80143
0
LINE
8
BLACK
6
CONTINUOUS
10
12.4762
20
-5.80143
11
12.6667
21
-5.89667
0
LINE
8
BLACK
6
CONTINUOUS
10
12.6667
20
-5.89667
11
12.7619
21
-6.08714
0
LINE
8
BLACK
6
CONTINUOUS
10
12.7619
20
-6.08714
11
12.7619
21
-7.13476
0
LINE
8
BLACK
6
CONTINUOUS
10
13.7143
20
-7.13476
11
13.7143
21
-5.80143
0
LINE
8
BLACK
6
CONTINUOUS
10
13.7143
20
-5.9919
11
13.8095
21
-5.89667
0
LINE
8
BLACK
6
CONTINUOUS
10
13.8095
20
-5.89667
11
14
21
-5.80143
0
LINE
8
BLACK
6
CONTINUOUS
10
14
20
-5.80143
11
14.2857
21
-5.80143
0
LINE
8
BLACK
6
CONTINUOUS
10
14.2857
20
-5.80143
11
14.4762
21
-5.89667
0
LINE
8
BLACK
6
CONTINUOUS
10
14.4762
20
-5.89667
11
14.5714
21
-6.08714
0
LINE
8
BLACK
6
CONTINUOUS
10
14.5714
20
-6.08714
11
14.5714
21
-7.13476
0
LINE
8
BLACK
6
CONTINUOUS
10
14.5714
20
-6.08714
11
14.6667
21
-5.89667
0
LINE
8
BLACK
6
CONTINUOUS
10
14.6667
20
-5.89667
11
14.8571
21
-5.80143
0
LINE
8
BLACK
6
CONTINUOUS
10
14.8571
20
-5.80143
11
15.1429
21
-5.80143
0
LINE
8
BLACK
6
CONTINUOUS
10
15.1429
20
-5.80143
11
15.3333
21
-5.89667
0
LINE
8
BLACK
6
CONTINUOUS
10
15.3333
20
-5.89667
11
15.4286
21
-6.08714
0
LINE
8
BLACK
6
CONTINUOUS
10
15.4286
20
-6.08714
11
15.4286
21
-7.13476
0
LINE
8
BLACK
6
CONTINUOUS
10
19.0095
20
-5.03952
11
17.2952
21
-7.61095
0
LINE
8
BLACK
6
CONTINUOUS
10
21.2571
20
-5.13476
11
21.4476
21
-5.13476
0
LINE
8
BLACK
6
CONTINUOUS
10
21.4476
20
-5.13476
11
21.6381
21
-5.23
0
LINE
8
BLACK
6
CONTINUOUS
10
21.6381
20
-5.23
11
21.7333
21
-5.32524
0
LINE
8
BLACK
6
CONTINUOUS
10
21.7333
20
-5.32524
11
21.8286
21
-5.51571
0
LINE
8
BLACK
6
CONTINUOUS
10
21.8286
20
-5.51571
11
21.9238
21
-5.89667
0
LINE
8
BLACK
6
CONTINUOUS
10
21.9238
20
-5.89667
11
21.9238
21
-6.37286
0
LINE
8
BLACK
6
CONTINUOUS
10
21.9238
20
-6.37286
11
21.8286
21
-6.75381
0
LINE
8
BLACK
6
CONTINUOUS
10
21.8286
20
-6.75381
11
21.7333
21
-6.94428
0
LINE
8
BLACK
6
CONTINUOUS
10
21.7333
20
-6.94428
11
21.6381
21
-7.03952
0
LINE
8
BLACK
6
CONTINUOUS
10
21.6381
20
-7.03952
11
21.4476
21
-7.13476
0
LINE
8
BLACK
6
CONTINUOUS
10
21.4476
20
-7.13476
11
21.2571
21
-7.13476
0
LINE
8
BLACK
6
CONTINUOUS
10
21.2571
20
-7.13476
11
21.0667
21
-7.03952
0
LINE
8
BLACK
6
CONTINUOUS
10
21.0667
20
-7.03952
11
20.9714
21
-6.94428
0
LINE
8
BLACK
6
CONTINUOUS
10
20.9714
20
-6.94428
11
20.8762
21
-6.75381
0
LINE
8
BLACK
6
CONTINUOUS
10
20.8762
20
-6.75381
11
20.781
21
-6.37286
0
LINE
8
BLACK
6
CONTINUOUS
10
20.781
20
-6.37286
11
20.781
21
-5.89667
0
LINE
8
BLACK
6
CONTINUOUS
10
20.781
20
-5.89667
11
20.8762
21
-5.51571
0
LINE
8
BLACK
6
CONTINUOUS
10
20.8762
20
-5.51571
11
20.9714
21
-5.32524
0
LINE
8
BLACK
6
CONTINUOUS
10
20.9714
20
-5.32524
11
21.0667
21
-5.23
0
LINE
8
BLACK
6
CONTINUOUS
10
21.0667
20
-5.23
11
21.2571
21
-5.13476
0
LINE
8
BLACK
6
CONTINUOUS
10
22.781
20
-6.94428
11
22.8762
21
-7.03952
0
LINE
8
BLACK
6
CONTINUOUS
10
22.8762
20
-7.03952
11
22.781
21
-7.13476
0
LINE
8
BLACK
6
CONTINUOUS
10
22.781
20
-7.13476
11
22.6857
21
-7.03952
0
LINE
8
BLACK
6
CONTINUOUS
10
22.6857
20
-7.03952
11
22.781
21
-6.94428
0
LINE
8
BLACK
6
CONTINUOUS
10
22.781
20
-6.94428
11
22.781
21
-7.13476
0
LINE
8
BLACK
6
CONTINUOUS
10
24.781
20
-7.13476
11
23.6381
21
-7.13476
0
LINE
8
BLACK
6
CONTINUOUS
10
24.2095
20
-7.13476
11
24.2095
21
-5.13476
0
LINE
8
BLACK
6
CONTINUOUS
10
24.2095
20
-5.13476
11
24.019
21
-5.42048
0
LINE
8
BLACK
6
CONTINUOUS
10
24.019
20
-5.42048
11
23.8286
21
-5.61095
0
LINE
8
BLACK
6
CONTINUOUS
10
23.8286
20
-5.61095
11
23.6381
21
-5.70619
0
LINE
8
BLACK
6
CONTINUOUS
10
25.5429
20
-5.32524
11
25.6381
21
-5.23
0
LINE
8
BLACK
6
CONTINUOUS
10
25.6381
20
-5.23
11
25.8286
21
-5.13476
0
LINE
8
BLACK
6
CONTINUOUS
10
25.8286
20
-5.13476
11
26.3048
21
-5.13476
0
LINE
8
BLACK
6
CONTINUOUS
10
26.3048
20
-5.13476
11
26.4952
21
-5.23
0
LINE
8
BLACK
6
CONTINUOUS
10
26.4952
20
-5.23
11
26.5905
21
-5.32524
0
LINE
8
BLACK
6
CONTINUOUS
10
26.5905
20
-5.32524
11
26.6857
21
-5.51571
0
LINE
8
BLACK
6
CONTINUOUS
10
26.6857
20
-5.51571
11
26.6857
21
-5.70619
0
LINE
8
BLACK
6
CONTINUOUS
10
26.6857
20
-5.70619
11
26.5905
21
-5.9919
0
LINE
8
BLACK
6
CONTINUOUS
10
26.5905
20
-5.9919
11
25.4476
21
-7.13476
0
LINE
8
BLACK
6
CONTINUOUS
10
25.4476
20
-7.13476
11
26.6857
21
-7.13476
0
LINE
8
BLACK
6
CONTINUOUS
10
28.4
20
-5.13476
11
28.019
21
-5.13476
0
LINE
8
BLACK
6
CONTINUOUS
10
28.019
20
-5.13476
11
27.8286
21
-5.23
0
LINE
8
BLACK
6
CONTINUOUS
10
27.8286
20
-5.23
11
27.7333
21
-5.32524
0
LINE
8
BLACK
6
CONTINUOUS
10
27.7333
20
-5.32524
11
27.5429
21
-5.61095
0
LINE
8
BLACK
6
CONTINUOUS
10
27.5429
20
-5.61095
11
27.4476
21
-5.9919
0
LINE
8
BLACK
6
CONTINUOUS
10
27.4476
20
-5.9919
11
27.4476
21
-6.75381
0
LINE
8
BLACK
6
CONTINUOUS
10
27.4476
20
-6.75381
11
27.5429
21
-6.94428
0
LINE
8
BLACK
6
CONTINUOUS
10
27.5429
20
-6.94428
11
27.6381
21
-7.03952
0
LINE
8
BLACK
6
CONTINUOUS
10
27.6381
20
-7.03952
11
27.8286
21
-7.13476
0
LINE
8
BLACK
6
CONTINUOUS
10
27.8286
20
-7.13476
11
28.2095
21
-7.13476
0
LINE
8
BLACK
6
CONTINUOUS
10
28.2095
20
-7.13476
11
28.4
21
-7.03952
0
LINE
8
BLACK
6
CONTINUOUS
10
28.4
20
-7.03952
11
28.4952
21
-6.94428
0
LINE
8
BLACK
6
CONTINUOUS
10
28.4952
20
-6.94428
11
28.5905
21
-6.75381
0
LINE
8
BLACK
6
CONTINUOUS
10
28.5905
20
-6.75381
11
28.5905
21
-6.27762
0
LINE
8
BLACK
6
CONTINUOUS
10
28.5905
20
-6.27762
11
28.4952
21
-6.08714
0
LINE
8
BLACK
6
CONTINUOUS
10
28.4952
20
-6.08714
11
28.4
21
-5.9919
0
LINE
8
BLACK
6
CONTINUOUS
10
28.4
20
-5.9919
11
28.2095
21
-5.89667
0
LINE
8
BLACK
6
CONTINUOUS
10
28.2095
20
-5.89667
11
27.8286
21
-5.89667
0
LINE
8
BLACK
6
CONTINUOUS
10
27.8286
20
-5.89667
11
27.6381
21
-5.9919
0
LINE
8
BLACK
6
CONTINUOUS
10
27.6381
20
-5.9919
11
27.5429
21
-6.08714
0
LINE
8
BLACK
6
CONTINUOUS
10
27.5429
20
-6.08714
11
27.4476
21
-6.27762
0
LINE
8
BLACK
6
CONTINUOUS
10
29.8286
20
-5.13476
11
30.019
21
-5.13476
0
LINE
8
BLACK
6
CONTINUOUS
10
30.019
20
-5.13476
11
30.2095
21
-5.23
0
LINE
8
BLACK
6
CONTINUOUS
10
30.2095
20
-5.23
11
30.3048
21
-5.32524
0
LINE
8
BLACK
6
CONTINUOUS
10
30.3048
20
-5.32524
11
30.4
21
-5.51571
0
LINE
8
BLACK
6
CONTINUOUS
10
30.4
20
-5.51571
11
30.4952
21
-5.89667
0
LINE
8
BLACK
6
CONTINUOUS
10
30.4952
20
-5.89667
11
30.4952
21
-6.37286
0
LINE
8
BLACK
6
CONTINUOUS
10
30.4952
20
-6.37286
11
30.4
21
-6.75381
0
LINE
8
BLACK
6
CONTINUOUS
10
30.4
20
-6.75381
11
30.3048
21
-6.94428
0
LINE
8
BLACK
6
CONTINUOUS
10
30.3048
20
-6.94428
11
30.2095
21
-7.03952
0
LINE
8
BLACK
6
CONTINUOUS
10
30.2095
20
-7.03952
11
30.019
21
-7.13476
0
LINE
8
BLACK
6
CONTINUOUS
10
30.019
20
-7.13476
11
29.8286
21
-7.13476
0
LINE
8
BLACK
6
CONTINUOUS
10
29.8286
20
-7.13476
11
29.6381
21
-7.03952
0
LINE
8
BLACK
6
CONTINUOUS
10
29.6381
20
-7.03952
11
29.5429
21
-6.94428
0
LINE
8
BLACK
6
CONTINUOUS
10
29.5429
20
-6.94428
11
29.4476
21
-6.75381
0
LINE
8
BLACK
6
CONTINUOUS
10
29.4476
20
-6.75381
11
29.3524
21
-6.37286
0
LINE
8
BLACK
6
CONTINUOUS
10
29.3524
20
-6.37286
11
29.3524
21
-5.89667
0
LINE
8
BLACK
6
CONTINUOUS
10
29.3524
20
-5.89667
11
29.4476
21
-5.51571
0
LINE
8
BLACK
6
CONTINUOUS
10
29.4476
20
-5.51571
11
29.5429
21
-5.32524
0
LINE
8
BLACK
6
CONTINUOUS
10
29.5429
20
-5.32524
11
29.6381
21
-5.23
0
LINE
8
BLACK
6
CONTINUOUS
10
29.6381
20
-5.23
11
29.8286
21
-5.13476
0
LINE
8
BLACK
6
CONTINUOUS
10
31.2571
20
-5.13476
11
31.2571
21
-5.51571
0
LINE
8
BLACK
6
CONTINUOUS
10
32.019
20
-5.13476
11
32.019
21
-5.51571
0
LINE
8
BLACK
6
CONTINUOUS
10
34.6476
20
-7.89667
11
34.5524
21
-7.80143
0
LINE
8
BLACK
6
CONTINUOUS
10
34.5524
20
-7.80143
11
34.3619
21
-7.51571
0
LINE
8
BLACK
6
CONTINUOUS
10
34.3619
20
-7.51571
11
34.2667
21
-7.32524
0
LINE
8
BLACK
6
CONTINUOUS
10
34.2667
20
-7.32524
11
34.1714
21
-7.03952
0
LINE
8
BLACK
6
CONTINUOUS
10
34.1714
20
-7.03952
11
34.0762
21
-6.56333
0
LINE
8
BLACK
6
CONTINUOUS
10
34.0762
20
-6.56333
11
34.0762
21
-6.18238
0
LINE
8
BLACK
6
CONTINUOUS
10
34.0762
20
-6.18238
11
34.1714
21
-5.70619
0
LINE
8
BLACK
6
CONTINUOUS
10
34.1714
20
-5.70619
11
34.2667
21
-5.42048
0
LINE
8
BLACK
6
CONTINUOUS
10
34.2667
20
-5.42048
11
34.3619
21
-5.23
0
LINE
8
BLACK
6
CONTINUOUS
10
34.3619
20
-5.23
11
34.5524
21
-4.94428
0
LINE
8
BLACK
6
CONTINUOUS
10
34.5524
20
-4.94428
11
34.6476
21
-4.84905
0
LINE
8
BLACK
6
CONTINUOUS
10
36.2667
20
-5.80143
11
36.2667
21
-7.13476
0
LINE
8
BLACK
6
CONTINUOUS
10
35.7905
20
-5.03952
11
35.3143
21
-6.46809
0
LINE
8
BLACK
6
CONTINUOUS
10
35.3143
20
-6.46809
11
36.5524
21
-6.46809
0
LINE
8
BLACK
6
CONTINUOUS
10
38.5143
20
-7.13476
11
38.5143
21
-5.13476
0
LINE
8
BLACK
6
CONTINUOUS
10
39.3714
20
-7.13476
11
39.3714
21
-6.08714
0
LINE
8
BLACK
6
CONTINUOUS
10
39.3714
20
-6.08714
11
39.2762
21
-5.89667
0
LINE
8
BLACK
6
CONTINUOUS
10
39.2762
20
-5.89667
11
39.0857
21
-5.80143
0
LINE
8
BLACK
6
CONTINUOUS
10
39.0857
20
-5.80143
11
38.8
21
-5.80143
0
LINE
8
BLACK
6
CONTINUOUS
10
38.8
20
-5.80143
11
38.6095
21
-5.89667
0
LINE
8
BLACK
6
CONTINUOUS
10
38.6095
20
-5.89667
11
38.5143
21
-5.9919
0
LINE
8
BLACK
6
CONTINUOUS
10
40.6095
20
-7.13476
11
40.419
21
-7.03952
0
LINE
8
BLACK
6
CONTINUOUS
10
40.419
20
-7.03952
11
40.3238
21
-6.94428
0
LINE
8
BLACK
6
CONTINUOUS
10
40.3238
20
-6.94428
11
40.2286
21
-6.75381
0
LINE
8
BLACK
6
CONTINUOUS
10
40.2286
20
-6.75381
11
40.2286
21
-6.18238
0
LINE
8
BLACK
6
CONTINUOUS
10
40.2286
20
-6.18238
11
40.3238
21
-5.9919
0
LINE
8
BLACK
6
CONTINUOUS
10
40.3238
20
-5.9919
11
40.419
21
-5.89667
0
LINE
8
BLACK
6
CONTINUOUS
10
40.419
20
-5.89667
11
40.6095
21
-5.80143
0
LINE
8
BLACK
6
CONTINUOUS
10
40.6095
20
-5.80143
11
40.8952
21
-5.80143
0
LINE
8
BLACK
6
CONTINUOUS
10
40.8952
20
-5.80143
11
41.0857
21
-5.89667
0
LINE
8
BLACK
6
CONTINUOUS
10
41.0857
20
-5.89667
11
41.181
21
-5.9919
0
LINE
8
BLACK
6
CONTINUOUS
10
41.181
20
-5.9919
11
41.2762
21
-6.18238
0
LINE
8
BLACK
6
CONTINUOUS
10
41.2762
20
-6.18238
11
41.2762
21
-6.75381
0
LINE
8
BLACK
6
CONTINUOUS
10
41.2762
20
-6.75381
11
41.181
21
-6.94428
0
LINE
8
BLACK
6
CONTINUOUS
10
41.181
20
-6.94428
11
41.0857
21
-7.03952
0
LINE
8
BLACK
6
CONTINUOUS
10
41.0857
20
-7.03952
11
40.8952
21
-7.13476
0
LINE
8
BLACK
6
CONTINUOUS
10
40.8952
20
-7.13476
11
40.6095
21
-7.13476
0
LINE
8
BLACK
6
CONTINUOUS
10
42.419
20
-7.13476
11
42.2286
21
-7.03952
0
LINE
8
BLACK
6
CONTINUOUS
10
42.2286
20
-7.03952
11
42.1333
21
-6.84905
0
LINE
8
BLACK
6
CONTINUOUS
10
42.1333
20
-6.84905
11
42.1333
21
-5.13476
0
LINE
8
BLACK
6
CONTINUOUS
10
43.9429
20
-7.03952
11
43.7524
21
-7.13476
0
LINE
8
BLACK
6
CONTINUOUS
10
43.7524
20
-7.13476
11
43.3714
21
-7.13476
0
LINE
8
BLACK
6
CONTINUOUS
10
43.3714
20
-7.13476
11
43.181
21
-7.03952
0
LINE
8
BLACK
6
CONTINUOUS
10
43.181
20
-7.03952
11
43.0857
21
-6.84905
0
LINE
8
BLACK
6
CONTINUOUS
10
43.0857
20
-6.84905
11
43.0857
21
-6.08714
0
LINE
8
BLACK
6
CONTINUOUS
10
43.0857
20
-6.08714
11
43.181
21
-5.89667
0
LINE
8
BLACK
6
CONTINUOUS
10
43.181
20
-5.89667
11
43.3714
21
-5.80143
0
LINE
8
BLACK
6
CONTINUOUS
10
43.3714
20
-5.80143
11
43.7524
21
-5.80143
0
LINE
8
BLACK
6
CONTINUOUS
10
43.7524
20
-5.80143
11
43.9429
21
-5.89667
0
LINE
8
BLACK
6
CONTINUOUS
10
43.9429
20
-5.89667
11
44.0381
21
-6.08714
0
LINE
8
BLACK
6
CONTINUOUS
10
44.0381
20
-6.08714
11
44.0381
21
-6.27762
0
LINE
8
BLACK
6
CONTINUOUS
10
44.0381
20
-6.27762
11
43.0857
21
-6.46809
0
LINE
8
BLACK
6
CONTINUOUS
10
44.8
20
-7.03952
11
44.9905
21
-7.13476
0
LINE
8
BLACK
6
CONTINUOUS
10
44.9905
20
-7.13476
11
45.3714
21
-7.13476
0
LINE
8
BLACK
6
CONTINUOUS
10
45.3714
20
-7.13476
11
45.5619
21
-7.03952
0
LINE
8
BLACK
6
CONTINUOUS
10
45.5619
20
-7.03952
11
45.6571
21
-6.84905
0
LINE
8
BLACK
6
CONTINUOUS
10
45.6571
20
-6.84905
11
45.6571
21
-6.75381
0
LINE
8
BLACK
6
CONTINUOUS
10
45.6571
20
-6.75381
11
45.5619
21
-6.56333
0
LINE
8
BLACK
6
CONTINUOUS
10
45.5619
20
-6.56333
11
45.3714
21
-6.46809
0
LINE
8
BLACK
6
CONTINUOUS
10
45.3714
20
-6.46809
11
45.0857
21
-6.46809
0
LINE
8
BLACK
6
CONTINUOUS
10
45.0857
20
-6.46809
11
44.8952
21
-6.37286
0
LINE
8
BLACK
6
CONTINUOUS
10
44.8952
20
-6.37286
11
44.8
21
-6.18238
0
LINE
8
BLACK
6
CONTINUOUS
10
44.8
20
-6.18238
11
44.8
21
-6.08714
0
LINE
8
BLACK
6
CONTINUOUS
10
44.8
20
-6.08714
11
44.8952
21
-5.89667
0
LINE
8
BLACK
6
CONTINUOUS
10
44.8952
20
-5.89667
11
45.0857
21
-5.80143
0
LINE
8
BLACK
6
CONTINUOUS
10
45.0857
20
-5.80143
11
45.3714
21
-5.80143
0
LINE
8
BLACK
6
CONTINUOUS
10
45.3714
20
-5.80143
11
45.5619
21
-5.89667
0
LINE
8
BLACK
6
CONTINUOUS
10
46.3238
20
-7.89667
11
46.419
21
-7.80143
0
LINE
8
BLACK
6
CONTINUOUS
10
46.419
20
-7.80143
11
46.6095
21
-7.51571
0
LINE
8
BLACK
6
CONTINUOUS
10
46.6095
20
-7.51571
11
46.7048
21
-7.32524
0
LINE
8
BLACK
6
CONTINUOUS
10
46.7048
20
-7.32524
11
46.8
21
-7.03952
0
LINE
8
BLACK
6
CONTINUOUS
10
46.8
20
-7.03952
11
46.8952
21
-6.56333
0
LINE
8
BLACK
6
CONTINUOUS
10
46.8952
20
-6.56333
11
46.8952
21
-6.18238
0
LINE
8
BLACK
6
CONTINUOUS
10
46.8952
20
-6.18238
11
46.8
21
-5.70619
0
LINE
8
BLACK
6
CONTINUOUS
10
46.8
20
-5.70619
11
46.7048
21
-5.42048
0
LINE
8
BLACK
6
CONTINUOUS
10
46.7048
20
-5.42048
11
46.6095
21
-5.23
0
LINE
8
BLACK
6
CONTINUOUS
10
46.6095
20
-5.23
11
46.419
21
-4.94428
0
LINE
8
BLACK
6
CONTINUOUS
10
46.419
20
-4.94428
11
46.3238
21
-4.84905
0
LINE
8
BLACK
6
CONTINUOUS
10
49.619
20
-7.89667
11
49.5238
21
-7.80143
0
LINE
8
BLACK
6
CONTINUOUS
10
49.5238
20
-7.80143
11
49.3333
21
-7.51571
0
LINE
8
BLACK
6
CONTINUOUS
10
49.3333
20
-7.51571
11
49.2381
21
-7.32524
0
LINE
8
BLACK
6
CONTINUOUS
10
49.2381
20
-7.32524
11
49.1429
21
-7.03952
0
LINE
8
BLACK
6
CONTINUOUS
10
49.1429
20
-7.03952
11
49.0476
21
-6.56333
0
LINE
8
BLACK
6
CONTINUOUS
10
49.0476
20
-6.56333
11
49.0476
21
-6.18238
0
LINE
8
BLACK
6
CONTINUOUS
10
49.0476
20
-6.18238
11
49.1429
21
-5.70619
0
LINE
8
BLACK
6
CONTINUOUS
10
49.1429
20
-5.70619
11
49.2381
21
-5.42048
0
LINE
8
BLACK
6
CONTINUOUS
10
49.2381
20
-5.42048
11
49.3333
21
-5.23
0
LINE
8
BLACK
6
CONTINUOUS
10
49.3333
20
-5.23
11
49.5238
21
-4.94428
0
LINE
8
BLACK
6
CONTINUOUS
10
49.5238
20
-4.94428
11
49.619
21
-4.84905
0
LINE
8
BLACK
6
CONTINUOUS
10
50.381
20
-5.80143
11
50.381
21
-7.13476
0
LINE
8
BLACK
6
CONTINUOUS
10
50.381
20
-5.9919
11
50.4762
21
-5.89667
0
LINE
8
BLACK
6
CONTINUOUS
10
50.4762
20
-5.89667
11
50.6667
21
-5.80143
0
LINE
8
BLACK
6
CONTINUOUS
10
50.6667
20
-5.80143
11
50.9524
21
-5.80143
0
LINE
8
BLACK
6
CONTINUOUS
10
50.9524
20
-5.80143
11
51.1429
21
-5.89667
0
LINE
8
BLACK
6
CONTINUOUS
10
51.1429
20
-5.89667
11
51.2381
21
-6.08714
0
LINE
8
BLACK
6
CONTINUOUS
10
51.2381
20
-6.08714
11
51.2381
21
-7.13476
0
LINE
8
BLACK
6
CONTINUOUS
10
52.4762
20
-7.13476
11
52.2857
21
-7.03952
0
LINE
8
BLACK
6
CONTINUOUS
10
52.2857
20
-7.03952
11
52.1905
21
-6.94428
0
LINE
8
BLACK
6
CONTINUOUS
10
52.1905
20
-6.94428
11
52.0952
21
-6.75381
0
LINE
8
BLACK
6
CONTINUOUS
10
52.0952
20
-6.75381
11
52.0952
21
-6.18238
0
LINE
8
BLACK
6
CONTINUOUS
10
52.0952
20
-6.18238
11
52.1905
21
-5.9919
0
LINE
8
BLACK
6
CONTINUOUS
10
52.1905
20
-5.9919
11
52.2857
21
-5.89667
0
LINE
8
BLACK
6
CONTINUOUS
10
52.2857
20
-5.89667
11
52.4762
21
-5.80143
0
LINE
8
BLACK
6
CONTINUOUS
10
52.4762
20
-5.80143
11
52.7619
21
-5.80143
0
LINE
8
BLACK
6
CONTINUOUS
10
52.7619
20
-5.80143
11
52.9524
21
-5.89667
0
LINE
8
BLACK
6
CONTINUOUS
10
52.9524
20
-5.89667
11
53.0476
21
-5.9919
0
LINE
8
BLACK
6
CONTINUOUS
10
53.0476
20
-5.9919
11
53.1429
21
-6.18238
0
LINE
8
BLACK
6
CONTINUOUS
10
53.1429
20
-6.18238
11
53.1429
21
-6.75381
0
LINE
8
BLACK
6
CONTINUOUS
10
53.1429
20
-6.75381
11
53.0476
21
-6.94428
0
LINE
8
BLACK
6
CONTINUOUS
10
53.0476
20
-6.94428
11
52.9524
21
-7.03952
0
LINE
8
BLACK
6
CONTINUOUS
10
52.9524
20
-7.03952
11
52.7619
21
-7.13476
0
LINE
8
BLACK
6
CONTINUOUS
10
52.7619
20
-7.13476
11
52.4762
21
-7.13476
0
LINE
8
BLACK
6
CONTINUOUS
10
53.7143
20
-5.80143
11
54.4762
21
-5.80143
0
LINE
8
BLACK
6
CONTINUOUS
10
54
20
-5.13476
11
54
21
-6.84905
0
LINE
8
BLACK
6
CONTINUOUS
10
54
20
-6.84905
11
54.0952
21
-7.03952
0
LINE
8
BLACK
6
CONTINUOUS
10
54.0952
20
-7.03952
11
54.2857
21
-7.13476
0
LINE
8
BLACK
6
CONTINUOUS
10
54.2857
20
-7.13476
11
54.4762
21
-7.13476
0
LINE
8
BLACK
6
CONTINUOUS
10
56.3429
20
-5.80143
11
56.3429
21
-7.80143
0
LINE
8
BLACK
6
CONTINUOUS
10
56.3429
20
-5.89667
11
56.5333
21
-5.80143
0
LINE
8
BLACK
6
CONTINUOUS
10
56.5333
20
-5.80143
11
56.9143
21
-5.80143
0
LINE
8
BLACK
6
CONTINUOUS
10
56.9143
20
-5.80143
11
57.1048
21
-5.89667
0
LINE
8
BLACK
6
CONTINUOUS
10
57.1048
20
-5.89667
11
57.2
21
-5.9919
0
LINE
8
BLACK
6
CONTINUOUS
10
57.2
20
-5.9919
11
57.2952
21
-6.18238
0
LINE
8
BLACK
6
CONTINUOUS
10
57.2952
20
-6.18238
11
57.2952
21
-6.75381
0
LINE
8
BLACK
6
CONTINUOUS
10
57.2952
20
-6.75381
11
57.2
21
-6.94428
0
LINE
8
BLACK
6
CONTINUOUS
10
57.2
20
-6.94428
11
57.1048
21
-7.03952
0
LINE
8
BLACK
6
CONTINUOUS
10
57.1048
20
-7.03952
11
56.9143
21
-7.13476
0
LINE
8
BLACK
6
CONTINUOUS
10
56.9143
20
-7.13476
11
56.5333
21
-7.13476
0
LINE
8
BLACK
6
CONTINUOUS
10
56.5333
20
-7.13476
11
56.3429
21
-7.03952
0
LINE
8
BLACK
6
CONTINUOUS
10
58.4381
20
-7.13476
11
58.2476
21
-7.03952
0
LINE
8
BLACK
6
CONTINUOUS
10
58.2476
20
-7.03952
11
58.1524
21
-6.84905
0
LINE
8
BLACK
6
CONTINUOUS
10
58.1524
20
-6.84905
11
58.1524
21
-5.13476
0
LINE
8
BLACK
6
CONTINUOUS
10
60.0571
20
-7.13476
11
60.0571
21
-6.08714
0
LINE
8
BLACK
6
CONTINUOUS
10
60.0571
20
-6.08714
11
59.9619
21
-5.89667
0
LINE
8
BLACK
6
CONTINUOUS
10
59.9619
20
-5.89667
11
59.7714
21
-5.80143
0
LINE
8
BLACK
6
CONTINUOUS
10
59.7714
20
-5.80143
11
59.3905
21
-5.80143
0
LINE
8
BLACK
6
CONTINUOUS
10
59.3905
20
-5.80143
11
59.2
21
-5.89667
0
LINE
8
BLACK
6
CONTINUOUS
10
60.0571
20
-7.03952
11
59.8667
21
-7.13476
0
LINE
8
BLACK
6
CONTINUOUS
10
59.8667
20
-7.13476
11
59.3905
21
-7.13476
0
LINE
8
BLACK
6
CONTINUOUS
10
59.3905
20
-7.13476
11
59.2
21
-7.03952
0
LINE
8
BLACK
6
CONTINUOUS
10
59.2
20
-7.03952
11
59.1048
21
-6.84905
0
LINE
8
BLACK
6
CONTINUOUS
10
59.1048
20
-6.84905
11
59.1048
21
-6.65857
0
LINE
8
BLACK
6
CONTINUOUS
10
59.1048
20
-6.65857
11
59.2
21
-6.46809
0
LINE
8
BLACK
6
CONTINUOUS
10
59.2
20
-6.46809
11
59.3905
21
-6.37286
0
LINE
8
BLACK
6
CONTINUOUS
10
59.3905
20
-6.37286
11
59.8667
21
-6.37286
0
LINE
8
BLACK
6
CONTINUOUS
10
59.8667
20
-6.37286
11
60.0571
21
-6.27762
0
LINE
8
BLACK
6
CONTINUOUS
10
60.7238
20
-5.80143
11
61.4857
21
-5.80143
0
LINE
8
BLACK
6
CONTINUOUS
10
61.0095
20
-5.13476
11
61.0095
21
-6.84905
0
LINE
8
BLACK
6
CONTINUOUS
10
61.0095
20
-6.84905
11
61.1048
21
-7.03952
0
LINE
8
BLACK
6
CONTINUOUS
10
61.1048
20
-7.03952
11
61.2952
21
-7.13476
0
LINE
8
BLACK
6
CONTINUOUS
10
61.2952
20
-7.13476
11
61.4857
21
-7.13476
0
LINE
8
BLACK
6
CONTINUOUS
10
62.9143
20
-7.03952
11
62.7238
21
-7.13476
0
LINE
8
BLACK
6
CONTINUOUS
10
62.7238
20
-7.13476
11
62.3429
21
-7.13476
0
LINE
8
BLACK
6
CONTINUOUS
10
62.3429
20
-7.13476
11
62.1524
21
-7.03952
0
LINE
8
BLACK
6
CONTINUOUS
10
62.1524
20
-7.03952
11
62.0571
21
-6.84905
0
LINE
8
BLACK
6
CONTINUOUS
10
62.0571
20
-6.84905
11
62.0571
21
-6.08714
0
LINE
8
BLACK
6
CONTINUOUS
10
62.0571
20
-6.08714
11
62.1524
21
-5.89667
0
LINE
8
BLACK
6
CONTINUOUS
10
62.1524
20
-5.89667
11
62.3429
21
-5.80143
0
LINE
8
BLACK
6
CONTINUOUS
10
62.3429
20
-5.80143
11
62.7238
21
-5.80143
0
LINE
8
BLACK
6
CONTINUOUS
10
62.7238
20
-5.80143
11
62.9143
21
-5.89667
0
LINE
8
BLACK
6
CONTINUOUS
10
62.9143
20
-5.89667
11
63.0095
21
-6.08714
0
LINE
8
BLACK
6
CONTINUOUS
10
63.0095
20
-6.08714
11
63.0095
21
-6.27762
0
LINE
8
BLACK
6
CONTINUOUS
10
63.0095
20
-6.27762
11
62.0571
21
-6.46809
0
LINE
8
BLACK
6
CONTINUOUS
10
64.7238
20
-7.13476
11
64.7238
21
-5.13476
0
LINE
8
BLACK
6
CONTINUOUS
10
64.7238
20
-7.03952
11
64.5333
21
-7.13476
0
LINE
8
BLACK
6
CONTINUOUS
10
64.5333
20
-7.13476
11
64.1524
21
-7.13476
0
LINE
8
BLACK
6
CONTINUOUS
10
64.1524
20
-7.13476
11
63.9619
21
-7.03952
0
LINE
8
BLACK
6
CONTINUOUS
10
63.9619
20
-7.03952
11
63.8667
21
-6.94428
0
LINE
8
BLACK
6
CONTINUOUS
10
63.8667
20
-6.94428
11
63.7714
21
-6.75381
0
LINE
8
BLACK
6
CONTINUOUS
10
63.7714
20
-6.75381
11
63.7714
21
-6.18238
0
LINE
8
BLACK
6
CONTINUOUS
10
63.7714
20
-6.18238
11
63.8667
21
-5.9919
0
LINE
8
BLACK
6
CONTINUOUS
10
63.8667
20
-5.9919
11
63.9619
21
-5.89667
0
LINE
8
BLACK
6
CONTINUOUS
10
63.9619
20
-5.89667
11
64.1524
21
-5.80143
0
LINE
8
BLACK
6
CONTINUOUS
10
64.1524
20
-5.80143
11
64.5333
21
-5.80143
0
LINE
8
BLACK
6
CONTINUOUS
10
64.5333
20
-5.80143
11
64.7238
21
-5.89667
0
LINE
8
BLACK
6
CONTINUOUS
10
65.4857
20
-7.89667
11
65.581
21
-7.80143
0
LINE
8
BLACK
6
CONTINUOUS
10
65.581
20
-7.80143
11
65.7714
21
-7.51571
0
LINE
8
BLACK
6
CONTINUOUS
10
65.7714
20
-7.51571
11
65.8667
21
-7.32524
0
LINE
8
BLACK
6
CONTINUOUS
10
65.8667
20
-7.32524
11
65.9619
21
-7.03952
0
LINE
8
BLACK
6
CONTINUOUS
10
65.9619
20
-7.03952
11
66.0571
21
-6.56333
0
LINE
8
BLACK
6
CONTINUOUS
10
66.0571
20
-6.56333
11
66.0571
21
-6.18238
0
LINE
8
BLACK
6
CONTINUOUS
10
66.0571
20
-6.18238
11
65.9619
21
-5.70619
0
LINE
8
BLACK
6
CONTINUOUS
10
65.9619
20
-5.70619
11
65.8667
21
-5.42048
0
LINE
8
BLACK
6
CONTINUOUS
10
65.8667
20
-5.42048
11
65.7714
21
-5.23
0
LINE
8
BLACK
6
CONTINUOUS
10
65.7714
20
-5.23
11
65.581
21
-4.94428
0
LINE
8
BLACK
6
CONTINUOUS
10
65.581
20
-4.94428
11
65.4857
21
-4.84905
  0
ENDSEC
  0
EOF
