  0
SECTION
  2
HEADER
  9
$ANGBASE
  50
0.0
  9
$ANGDIR
  70
1
  9
$MEASUREMENT
  70
1
  0
ENDSEC
  0
SECTION
  2
TABLES
  0
TABLE
  2
LTYPE
  70
4
  0
LTYPE
  5
40F
  2
CONTINUOUS
  70
0
  3
Solid line
  72
65
  73
0
  40
0.0
  0
LTYPE
  5
410
  2
DASHDOT
 70
0
  3
Dash Dot ____ _ ____ _
 72
65
 73
4
 40
2.0
 49
1.25
 49
-0.25
 49
0.25
 49
-0.25
  0
LTYPE
  5
411
  2
DASHED
 70
0
  3
Dashed __ __ __ __ __
 72
65
 73
2
 40
0.75
 49
0.5
 49
-0.25
  0
LTYPE
  5
43B
  2
DOTTED
 70
0
  3
Dotted .  .  .  .
 72
65
 73
2
 40
0.2
 49
0.0
 49
-0.2
  0
ENDTAB
  0
TABLE
  2
STYLE
  70
4
  0
STYLE
  2
KICAD
  70
0
  40
0
  41
1
  42
1
  50
0
  71
0
  3
isocp.shx
  0
STYLE
  2
KICADB
  70
0
  40
0
  41
1
  42
1
  50
0
  71
0
  3
isocp.shx
  0
STYLE
  2
KICADI
  70
0
  40
0
  41
1
  42
1
  50
15
  71
0
  3
isocp.shx
  0
STYLE
  2
KICADBI
  70
0
  40
0
  41
1
  42
1
  50
15
  71
0
  3
isocp.shx
  0
ENDTAB
  0
TABLE
  2
LAYER
  70
1
  0
LAYER
  2
BLACK
  70
0
  62
7
  6
CONTINUOUS
  0
ENDTAB
  0
ENDSEC
  0
SECTION
  2
ENTITIES
0
LINE
8
BLACK
6
CONTINUOUS
10
180.775
20
-136.325
11
181.175
21
-136.725
0
LINE
8
BLACK
6
CONTINUOUS
10
181.175
20
-136.325
11
180.775
21
-136.725
0
CIRCLE
8
BLACK
10
106.045
20
-81.915
40
0.5
0
CIRCLE
8
BLACK
10
106.045
20
-84.455
40
0.5
0
CIRCLE
8
BLACK
10
108.585
20
-81.915
40
0.5
0
CIRCLE
8
BLACK
10
108.585
20
-84.455
40
0.5
0
CIRCLE
8
BLACK
10
111.125
20
-81.915
40
0.5
0
CIRCLE
8
BLACK
10
111.125
20
-84.455
40
0.5
0
CIRCLE
8
BLACK
10
113.665
20
-81.915
40
0.5
0
CIRCLE
8
BLACK
10
113.665
20
-84.455
40
0.5
0
CIRCLE
8
BLACK
10
116.205
20
-81.915
40
0.5
0
CIRCLE
8
BLACK
10
116.205
20
-84.455
40
0.5
0
CIRCLE
8
BLACK
10
118.745
20
-81.915
40
0.5
0
CIRCLE
8
BLACK
10
118.745
20
-84.455
40
0.5
0
CIRCLE
8
BLACK
10
121.285
20
-81.915
40
0.5
0
CIRCLE
8
BLACK
10
121.285
20
-84.455
40
0.5
0
CIRCLE
8
BLACK
10
123.825
20
-81.915
40
0.5
0
CIRCLE
8
BLACK
10
123.825
20
-84.455
40
0.5
0
CIRCLE
8
BLACK
10
133.35
20
-61.595
40
0.5
0
CIRCLE
8
BLACK
10
133.35
20
-64.135
40
0.5
0
CIRCLE
8
BLACK
10
133.35
20
-66.675
40
0.5
0
CIRCLE
8
BLACK
10
133.35
20
-69.215
40
0.5
0
CIRCLE
8
BLACK
10
133.35
20
-71.755
40
0.5
0
CIRCLE
8
BLACK
10
133.35
20
-74.295
40
0.5
0
CIRCLE
8
BLACK
10
133.35
20
-76.835
40
0.5
0
CIRCLE
8
BLACK
10
133.35
20
-79.375
40
0.5
0
CIRCLE
8
BLACK
10
133.35
20
-81.915
40
0.5
0
CIRCLE
8
BLACK
10
133.35
20
-84.455
40
0.5
0
CIRCLE
8
BLACK
10
133.35
20
-86.995
40
0.5
0
CIRCLE
8
BLACK
10
133.35
20
-89.535
40
0.5
0
CIRCLE
8
BLACK
10
133.35
20
-92.075
40
0.5
0
CIRCLE
8
BLACK
10
133.35
20
-94.615
40
0.5
0
CIRCLE
8
BLACK
10
133.35
20
-97.155
40
0.5
0
CIRCLE
8
BLACK
10
133.35
20
-99.695
40
0.5
0
CIRCLE
8
BLACK
10
133.35
20
-102.235
40
0.5
0
CIRCLE
8
BLACK
10
133.354
20
-56.5177
40
0.5
0
CIRCLE
8
BLACK
10
133.354
20
-59.0577
40
0.5
0
CIRCLE
8
BLACK
10
158.75
20
-56.515
40
0.5
0
CIRCLE
8
BLACK
10
158.75
20
-59.055
40
0.5
0
CIRCLE
8
BLACK
10
158.75
20
-61.595
40
0.5
0
CIRCLE
8
BLACK
10
158.75
20
-64.135
40
0.5
0
CIRCLE
8
BLACK
10
158.75
20
-66.675
40
0.5
0
CIRCLE
8
BLACK
10
158.75
20
-69.215
40
0.5
0
CIRCLE
8
BLACK
10
158.75
20
-71.755
40
0.5
0
CIRCLE
8
BLACK
10
158.75
20
-74.295
40
0.5
0
CIRCLE
8
BLACK
10
158.75
20
-76.835
40
0.5
0
CIRCLE
8
BLACK
10
158.75
20
-79.375
40
0.5
0
CIRCLE
8
BLACK
10
158.75
20
-81.915
40
0.5
0
CIRCLE
8
BLACK
10
158.75
20
-84.455
40
0.5
0
CIRCLE
8
BLACK
10
158.75
20
-86.995
40
0.5
0
CIRCLE
8
BLACK
10
158.75
20
-89.535
40
0.5
0
CIRCLE
8
BLACK
10
158.75
20
-92.075
40
0.5
0
CIRCLE
8
BLACK
10
158.75
20
-94.615
40
0.5
0
CIRCLE
8
BLACK
10
158.75
20
-97.155
40
0.5
0
CIRCLE
8
BLACK
10
158.75
20
-99.695
40
0.5
0
CIRCLE
8
BLACK
10
158.75
20
-102.235
40
0.5
0
CIRCLE
8
BLACK
10
175.91
20
-61.765
40
0.5
0
CIRCLE
8
BLACK
10
175.91
20
-64.305
40
0.5
0
CIRCLE
8
BLACK
10
175.91
20
-66.845
40
0.5
0
CIRCLE
8
BLACK
10
175.91
20
-69.385
40
0.5
0
CIRCLE
8
BLACK
10
175.91
20
-71.925
40
0.5
0
CIRCLE
8
BLACK
10
175.91
20
-74.465
40
0.5
0
CIRCLE
8
BLACK
10
175.91
20
-77.005
40
0.5
0
CIRCLE
8
BLACK
10
175.91
20
-79.545
40
0.5
0
CIRCLE
8
BLACK
10
175.91
20
-85.71
40
0.5
0
CIRCLE
8
BLACK
10
175.91
20
-88.25
40
0.5
0
CIRCLE
8
BLACK
10
175.91
20
-90.79
40
0.5
0
CIRCLE
8
BLACK
10
175.91
20
-93.33
40
0.5
0
CIRCLE
8
BLACK
10
175.91
20
-95.87
40
0.5
0
CIRCLE
8
BLACK
10
175.91
20
-98.41
40
0.5
0
CIRCLE
8
BLACK
10
175.91
20
-100.95
40
0.5
0
CIRCLE
8
BLACK
10
175.91
20
-103.49
40
0.5
0
CIRCLE
8
BLACK
10
175.91
20
-109.655
40
0.5
0
CIRCLE
8
BLACK
10
175.91
20
-112.195
40
0.5
0
CIRCLE
8
BLACK
10
175.91
20
-114.735
40
0.5
0
CIRCLE
8
BLACK
10
175.91
20
-117.275
40
0.5
0
CIRCLE
8
BLACK
10
175.91
20
-119.815
40
0.5
0
CIRCLE
8
BLACK
10
175.91
20
-122.355
40
0.5
0
CIRCLE
8
BLACK
10
175.91
20
-124.895
40
0.5
0
CIRCLE
8
BLACK
10
175.91
20
-127.435
40
0.5
0
LINE
8
BLACK
6
CONTINUOUS
10
2.47619
20
-2.93476
11
2.47619
21
-0.934761
0
LINE
8
BLACK
6
CONTINUOUS
10
2.47619
20
-0.934761
11
2.95238
21
-0.934761
0
LINE
8
BLACK
6
CONTINUOUS
10
2.95238
20
-0.934761
11
3.23809
21
-1.03
0
LINE
8
BLACK
6
CONTINUOUS
10
3.23809
20
-1.03
11
3.42857
21
-1.22048
0
LINE
8
BLACK
6
CONTINUOUS
10
3.42857
20
-1.22048
11
3.52381
21
-1.41095
0
LINE
8
BLACK
6
CONTINUOUS
10
3.52381
20
-1.41095
11
3.61905
21
-1.7919
0
LINE
8
BLACK
6
CONTINUOUS
10
3.61905
20
-1.7919
11
3.61905
21
-2.07762
0
LINE
8
BLACK
6
CONTINUOUS
10
3.61905
20
-2.07762
11
3.52381
21
-2.45857
0
LINE
8
BLACK
6
CONTINUOUS
10
3.52381
20
-2.45857
11
3.42857
21
-2.64905
0
LINE
8
BLACK
6
CONTINUOUS
10
3.42857
20
-2.64905
11
3.23809
21
-2.83952
0
LINE
8
BLACK
6
CONTINUOUS
10
3.23809
20
-2.83952
11
2.95238
21
-2.93476
0
LINE
8
BLACK
6
CONTINUOUS
10
2.95238
20
-2.93476
11
2.47619
21
-2.93476
0
LINE
8
BLACK
6
CONTINUOUS
10
4.47619
20
-2.93476
11
4.47619
21
-1.60143
0
LINE
8
BLACK
6
CONTINUOUS
10
4.47619
20
-1.98238
11
4.57143
21
-1.7919
0
LINE
8
BLACK
6
CONTINUOUS
10
4.57143
20
-1.7919
11
4.66667
21
-1.69667
0
LINE
8
BLACK
6
CONTINUOUS
10
4.66667
20
-1.69667
11
4.85714
21
-1.60143
0
LINE
8
BLACK
6
CONTINUOUS
10
4.85714
20
-1.60143
11
5.04762
21
-1.60143
0
LINE
8
BLACK
6
CONTINUOUS
10
5.71428
20
-2.93476
11
5.71428
21
-1.60143
0
LINE
8
BLACK
6
CONTINUOUS
10
5.71428
20
-0.934761
11
5.61905
21
-1.03
0
LINE
8
BLACK
6
CONTINUOUS
10
5.61905
20
-1.03
11
5.71428
21
-1.12524
0
LINE
8
BLACK
6
CONTINUOUS
10
5.71428
20
-1.12524
11
5.80952
21
-1.03
0
LINE
8
BLACK
6
CONTINUOUS
10
5.80952
20
-1.03
11
5.71428
21
-0.934761
0
LINE
8
BLACK
6
CONTINUOUS
10
5.71428
20
-0.934761
11
5.71428
21
-1.12524
0
LINE
8
BLACK
6
CONTINUOUS
10
6.95238
20
-2.93476
11
6.7619
21
-2.83952
0
LINE
8
BLACK
6
CONTINUOUS
10
6.7619
20
-2.83952
11
6.66667
21
-2.64905
0
LINE
8
BLACK
6
CONTINUOUS
10
6.66667
20
-2.64905
11
6.66667
21
-0.934761
0
LINE
8
BLACK
6
CONTINUOUS
10
8
20
-2.93476
11
7.80952
21
-2.83952
0
LINE
8
BLACK
6
CONTINUOUS
10
7.80952
20
-2.83952
11
7.71428
21
-2.64905
0
LINE
8
BLACK
6
CONTINUOUS
10
7.71428
20
-2.64905
11
7.71428
21
-0.934761
0
LINE
8
BLACK
6
CONTINUOUS
10
9.9619
20
-2.93476
11
9.9619
21
-0.934761
0
LINE
8
BLACK
6
CONTINUOUS
10
9.9619
20
-0.934761
11
10.6286
21
-2.36333
0
LINE
8
BLACK
6
CONTINUOUS
10
10.6286
20
-2.36333
11
11.2952
21
-0.934761
0
LINE
8
BLACK
6
CONTINUOUS
10
11.2952
20
-0.934761
11
11.2952
21
-2.93476
0
LINE
8
BLACK
6
CONTINUOUS
10
13.1048
20
-2.93476
11
13.1048
21
-1.88714
0
LINE
8
BLACK
6
CONTINUOUS
10
13.1048
20
-1.88714
11
13.0095
21
-1.69667
0
LINE
8
BLACK
6
CONTINUOUS
10
13.0095
20
-1.69667
11
12.819
21
-1.60143
0
LINE
8
BLACK
6
CONTINUOUS
10
12.819
20
-1.60143
11
12.4381
21
-1.60143
0
LINE
8
BLACK
6
CONTINUOUS
10
12.4381
20
-1.60143
11
12.2476
21
-1.69667
0
LINE
8
BLACK
6
CONTINUOUS
10
13.1048
20
-2.83952
11
12.9143
21
-2.93476
0
LINE
8
BLACK
6
CONTINUOUS
10
12.9143
20
-2.93476
11
12.4381
21
-2.93476
0
LINE
8
BLACK
6
CONTINUOUS
10
12.4381
20
-2.93476
11
12.2476
21
-2.83952
0
LINE
8
BLACK
6
CONTINUOUS
10
12.2476
20
-2.83952
11
12.1524
21
-2.64905
0
LINE
8
BLACK
6
CONTINUOUS
10
12.1524
20
-2.64905
11
12.1524
21
-2.45857
0
LINE
8
BLACK
6
CONTINUOUS
10
12.1524
20
-2.45857
11
12.2476
21
-2.26809
0
LINE
8
BLACK
6
CONTINUOUS
10
12.2476
20
-2.26809
11
12.4381
21
-2.17286
0
LINE
8
BLACK
6
CONTINUOUS
10
12.4381
20
-2.17286
11
12.9143
21
-2.17286
0
LINE
8
BLACK
6
CONTINUOUS
10
12.9143
20
-2.17286
11
13.1048
21
-2.07762
0
LINE
8
BLACK
6
CONTINUOUS
10
14.0571
20
-1.60143
11
14.0571
21
-3.60143
0
LINE
8
BLACK
6
CONTINUOUS
10
14.0571
20
-1.69667
11
14.2476
21
-1.60143
0
LINE
8
BLACK
6
CONTINUOUS
10
14.2476
20
-1.60143
11
14.6286
21
-1.60143
0
LINE
8
BLACK
6
CONTINUOUS
10
14.6286
20
-1.60143
11
14.819
21
-1.69667
0
LINE
8
BLACK
6
CONTINUOUS
10
14.819
20
-1.69667
11
14.9143
21
-1.7919
0
LINE
8
BLACK
6
CONTINUOUS
10
14.9143
20
-1.7919
11
15.0095
21
-1.98238
0
LINE
8
BLACK
6
CONTINUOUS
10
15.0095
20
-1.98238
11
15.0095
21
-2.55381
0
LINE
8
BLACK
6
CONTINUOUS
10
15.0095
20
-2.55381
11
14.9143
21
-2.74429
0
LINE
8
BLACK
6
CONTINUOUS
10
14.9143
20
-2.74429
11
14.819
21
-2.83952
0
LINE
8
BLACK
6
CONTINUOUS
10
14.819
20
-2.83952
11
14.6286
21
-2.93476
0
LINE
8
BLACK
6
CONTINUOUS
10
14.6286
20
-2.93476
11
14.2476
21
-2.93476
0
LINE
8
BLACK
6
CONTINUOUS
10
14.2476
20
-2.93476
11
14.0571
21
-2.83952
0
LINE
8
BLACK
6
CONTINUOUS
10
15.8667
20
-2.74429
11
15.9619
21
-2.83952
0
LINE
8
BLACK
6
CONTINUOUS
10
15.9619
20
-2.83952
11
15.8667
21
-2.93476
0
LINE
8
BLACK
6
CONTINUOUS
10
15.8667
20
-2.93476
11
15.7714
21
-2.83952
0
LINE
8
BLACK
6
CONTINUOUS
10
15.7714
20
-2.83952
11
15.8667
21
-2.74429
0
LINE
8
BLACK
6
CONTINUOUS
10
15.8667
20
-2.74429
11
15.8667
21
-2.93476
0
LINE
8
BLACK
6
CONTINUOUS
10
15.8667
20
-1.69667
11
15.9619
21
-1.7919
0
LINE
8
BLACK
6
CONTINUOUS
10
15.9619
20
-1.7919
11
15.8667
21
-1.88714
0
LINE
8
BLACK
6
CONTINUOUS
10
15.8667
20
-1.88714
11
15.7714
21
-1.7919
0
LINE
8
BLACK
6
CONTINUOUS
10
15.7714
20
-1.7919
11
15.8667
21
-1.69667
0
LINE
8
BLACK
6
CONTINUOUS
10
15.8667
20
-1.69667
11
15.8667
21
-1.88714
0
LINE
8
BLACK
6
CONTINUOUS
10
-0.4
20
-6.2
11
0
21
-6.6
0
LINE
8
BLACK
6
CONTINUOUS
10
0
20
-6.2
11
-0.4
21
-6.6
0
LINE
8
BLACK
6
CONTINUOUS
10
2.85714
20
-5.13476
11
3.04762
21
-5.13476
0
LINE
8
BLACK
6
CONTINUOUS
10
3.04762
20
-5.13476
11
3.23809
21
-5.23
0
LINE
8
BLACK
6
CONTINUOUS
10
3.23809
20
-5.23
11
3.33333
21
-5.32524
0
LINE
8
BLACK
6
CONTINUOUS
10
3.33333
20
-5.32524
11
3.42857
21
-5.51571
0
LINE
8
BLACK
6
CONTINUOUS
10
3.42857
20
-5.51571
11
3.52381
21
-5.89667
0
LINE
8
BLACK
6
CONTINUOUS
10
3.52381
20
-5.89667
11
3.52381
21
-6.37286
0
LINE
8
BLACK
6
CONTINUOUS
10
3.52381
20
-6.37286
11
3.42857
21
-6.75381
0
LINE
8
BLACK
6
CONTINUOUS
10
3.42857
20
-6.75381
11
3.33333
21
-6.94428
0
LINE
8
BLACK
6
CONTINUOUS
10
3.33333
20
-6.94428
11
3.23809
21
-7.03952
0
LINE
8
BLACK
6
CONTINUOUS
10
3.23809
20
-7.03952
11
3.04762
21
-7.13476
0
LINE
8
BLACK
6
CONTINUOUS
10
3.04762
20
-7.13476
11
2.85714
21
-7.13476
0
LINE
8
BLACK
6
CONTINUOUS
10
2.85714
20
-7.13476
11
2.66667
21
-7.03952
0
LINE
8
BLACK
6
CONTINUOUS
10
2.66667
20
-7.03952
11
2.57143
21
-6.94428
0
LINE
8
BLACK
6
CONTINUOUS
10
2.57143
20
-6.94428
11
2.47619
21
-6.75381
0
LINE
8
BLACK
6
CONTINUOUS
10
2.47619
20
-6.75381
11
2.38095
21
-6.37286
0
LINE
8
BLACK
6
CONTINUOUS
10
2.38095
20
-6.37286
11
2.38095
21
-5.89667
0
LINE
8
BLACK
6
CONTINUOUS
10
2.38095
20
-5.89667
11
2.47619
21
-5.51571
0
LINE
8
BLACK
6
CONTINUOUS
10
2.47619
20
-5.51571
11
2.57143
21
-5.32524
0
LINE
8
BLACK
6
CONTINUOUS
10
2.57143
20
-5.32524
11
2.66667
21
-5.23
0
LINE
8
BLACK
6
CONTINUOUS
10
2.66667
20
-5.23
11
2.85714
21
-5.13476
0
LINE
8
BLACK
6
CONTINUOUS
10
4.38095
20
-6.94428
11
4.47619
21
-7.03952
0
LINE
8
BLACK
6
CONTINUOUS
10
4.47619
20
-7.03952
11
4.38095
21
-7.13476
0
LINE
8
BLACK
6
CONTINUOUS
10
4.38095
20
-7.13476
11
4.28571
21
-7.03952
0
LINE
8
BLACK
6
CONTINUOUS
10
4.28571
20
-7.03952
11
4.38095
21
-6.94428
0
LINE
8
BLACK
6
CONTINUOUS
10
4.38095
20
-6.94428
11
4.38095
21
-7.13476
0
LINE
8
BLACK
6
CONTINUOUS
10
6.19048
20
-5.80143
11
6.19048
21
-7.13476
0
LINE
8
BLACK
6
CONTINUOUS
10
5.71428
20
-5.03952
11
5.23809
21
-6.46809
0
LINE
8
BLACK
6
CONTINUOUS
10
5.23809
20
-6.46809
11
6.47619
21
-6.46809
0
LINE
8
BLACK
6
CONTINUOUS
10
7.61905
20
-5.13476
11
7.80952
21
-5.13476
0
LINE
8
BLACK
6
CONTINUOUS
10
7.80952
20
-5.13476
11
8
21
-5.23
0
LINE
8
BLACK
6
CONTINUOUS
10
8
20
-5.23
11
8.09524
21
-5.32524
0
LINE
8
BLACK
6
CONTINUOUS
10
8.09524
20
-5.32524
11
8.19048
21
-5.51571
0
LINE
8
BLACK
6
CONTINUOUS
10
8.19048
20
-5.51571
11
8.28571
21
-5.89667
0
LINE
8
BLACK
6
CONTINUOUS
10
8.28571
20
-5.89667
11
8.28571
21
-6.37286
0
LINE
8
BLACK
6
CONTINUOUS
10
8.28571
20
-6.37286
11
8.19048
21
-6.75381
0
LINE
8
BLACK
6
CONTINUOUS
10
8.19048
20
-6.75381
11
8.09524
21
-6.94428
0
LINE
8
BLACK
6
CONTINUOUS
10
8.09524
20
-6.94428
11
8
21
-7.03952
0
LINE
8
BLACK
6
CONTINUOUS
10
8
20
-7.03952
11
7.80952
21
-7.13476
0
LINE
8
BLACK
6
CONTINUOUS
10
7.80952
20
-7.13476
11
7.61905
21
-7.13476
0
LINE
8
BLACK
6
CONTINUOUS
10
7.61905
20
-7.13476
11
7.42857
21
-7.03952
0
LINE
8
BLACK
6
CONTINUOUS
10
7.42857
20
-7.03952
11
7.33333
21
-6.94428
0
LINE
8
BLACK
6
CONTINUOUS
10
7.33333
20
-6.94428
11
7.23809
21
-6.75381
0
LINE
8
BLACK
6
CONTINUOUS
10
7.23809
20
-6.75381
11
7.14286
21
-6.37286
0
LINE
8
BLACK
6
CONTINUOUS
10
7.14286
20
-6.37286
11
7.14286
21
-5.89667
0
LINE
8
BLACK
6
CONTINUOUS
10
7.14286
20
-5.89667
11
7.23809
21
-5.51571
0
LINE
8
BLACK
6
CONTINUOUS
10
7.23809
20
-5.51571
11
7.33333
21
-5.32524
0
LINE
8
BLACK
6
CONTINUOUS
10
7.33333
20
-5.32524
11
7.42857
21
-5.23
0
LINE
8
BLACK
6
CONTINUOUS
10
7.42857
20
-5.23
11
7.61905
21
-5.13476
0
LINE
8
BLACK
6
CONTINUOUS
10
9.52381
20
-5.13476
11
9.71429
21
-5.13476
0
LINE
8
BLACK
6
CONTINUOUS
10
9.71429
20
-5.13476
11
9.90476
21
-5.23
0
LINE
8
BLACK
6
CONTINUOUS
10
9.90476
20
-5.23
11
10
21
-5.32524
0
LINE
8
BLACK
6
CONTINUOUS
10
10
20
-5.32524
11
10.0952
21
-5.51571
0
LINE
8
BLACK
6
CONTINUOUS
10
10.0952
20
-5.51571
11
10.1905
21
-5.89667
0
LINE
8
BLACK
6
CONTINUOUS
10
10.1905
20
-5.89667
11
10.1905
21
-6.37286
0
LINE
8
BLACK
6
CONTINUOUS
10
10.1905
20
-6.37286
11
10.0952
21
-6.75381
0
LINE
8
BLACK
6
CONTINUOUS
10
10.0952
20
-6.75381
11
10
21
-6.94428
0
LINE
8
BLACK
6
CONTINUOUS
10
10
20
-6.94428
11
9.90476
21
-7.03952
0
LINE
8
BLACK
6
CONTINUOUS
10
9.90476
20
-7.03952
11
9.71429
21
-7.13476
0
LINE
8
BLACK
6
CONTINUOUS
10
9.71429
20
-7.13476
11
9.52381
21
-7.13476
0
LINE
8
BLACK
6
CONTINUOUS
10
9.52381
20
-7.13476
11
9.33333
21
-7.03952
0
LINE
8
BLACK
6
CONTINUOUS
10
9.33333
20
-7.03952
11
9.23809
21
-6.94428
0
LINE
8
BLACK
6
CONTINUOUS
10
9.23809
20
-6.94428
11
9.14286
21
-6.75381
0
LINE
8
BLACK
6
CONTINUOUS
10
9.14286
20
-6.75381
11
9.04762
21
-6.37286
0
LINE
8
BLACK
6
CONTINUOUS
10
9.04762
20
-6.37286
11
9.04762
21
-5.89667
0
LINE
8
BLACK
6
CONTINUOUS
10
9.04762
20
-5.89667
11
9.14286
21
-5.51571
0
LINE
8
BLACK
6
CONTINUOUS
10
9.14286
20
-5.51571
11
9.23809
21
-5.32524
0
LINE
8
BLACK
6
CONTINUOUS
10
9.23809
20
-5.32524
11
9.33333
21
-5.23
0
LINE
8
BLACK
6
CONTINUOUS
10
9.33333
20
-5.23
11
9.52381
21
-5.13476
0
LINE
8
BLACK
6
CONTINUOUS
10
11.0476
20
-7.13476
11
11.0476
21
-5.80143
0
LINE
8
BLACK
6
CONTINUOUS
10
11.0476
20
-5.9919
11
11.1429
21
-5.89667
0
LINE
8
BLACK
6
CONTINUOUS
10
11.1429
20
-5.89667
11
11.3333
21
-5.80143
0
LINE
8
BLACK
6
CONTINUOUS
10
11.3333
20
-5.80143
11
11.619
21
-5.80143
0
LINE
8
BLACK
6
CONTINUOUS
10
11.619
20
-5.80143
11
11.8095
21
-5.89667
0
LINE
8
BLACK
6
CONTINUOUS
10
11.8095
20
-5.89667
11
11.9048
21
-6.08714
0
LINE
8
BLACK
6
CONTINUOUS
10
11.9048
20
-6.08714
11
11.9048
21
-7.13476
0
LINE
8
BLACK
6
CONTINUOUS
10
11.9048
20
-6.08714
11
12
21
-5.89667
0
LINE
8
BLACK
6
CONTINUOUS
10
12
20
-5.89667
11
12.1905
21
-5.80143
0
LINE
8
BLACK
6
CONTINUOUS
10
12.1905
20
-5.80143
11
12.4762
21
-5.80143
0
LINE
8
BLACK
6
CONTINUOUS
10
12.4762
20
-5.80143
11
12.6667
21
-5.89667
0
LINE
8
BLACK
6
CONTINUOUS
10
12.6667
20
-5.89667
11
12.7619
21
-6.08714
0
LINE
8
BLACK
6
CONTINUOUS
10
12.7619
20
-6.08714
11
12.7619
21
-7.13476
0
LINE
8
BLACK
6
CONTINUOUS
10
13.7143
20
-7.13476
11
13.7143
21
-5.80143
0
LINE
8
BLACK
6
CONTINUOUS
10
13.7143
20
-5.9919
11
13.8095
21
-5.89667
0
LINE
8
BLACK
6
CONTINUOUS
10
13.8095
20
-5.89667
11
14
21
-5.80143
0
LINE
8
BLACK
6
CONTINUOUS
10
14
20
-5.80143
11
14.2857
21
-5.80143
0
LINE
8
BLACK
6
CONTINUOUS
10
14.2857
20
-5.80143
11
14.4762
21
-5.89667
0
LINE
8
BLACK
6
CONTINUOUS
10
14.4762
20
-5.89667
11
14.5714
21
-6.08714
0
LINE
8
BLACK
6
CONTINUOUS
10
14.5714
20
-6.08714
11
14.5714
21
-7.13476
0
LINE
8
BLACK
6
CONTINUOUS
10
14.5714
20
-6.08714
11
14.6667
21
-5.89667
0
LINE
8
BLACK
6
CONTINUOUS
10
14.6667
20
-5.89667
11
14.8571
21
-5.80143
0
LINE
8
BLACK
6
CONTINUOUS
10
14.8571
20
-5.80143
11
15.1429
21
-5.80143
0
LINE
8
BLACK
6
CONTINUOUS
10
15.1429
20
-5.80143
11
15.3333
21
-5.89667
0
LINE
8
BLACK
6
CONTINUOUS
10
15.3333
20
-5.89667
11
15.4286
21
-6.08714
0
LINE
8
BLACK
6
CONTINUOUS
10
15.4286
20
-6.08714
11
15.4286
21
-7.13476
0
LINE
8
BLACK
6
CONTINUOUS
10
19.0095
20
-5.03952
11
17.2952
21
-7.61095
0
LINE
8
BLACK
6
CONTINUOUS
10
21.2571
20
-5.13476
11
21.4476
21
-5.13476
0
LINE
8
BLACK
6
CONTINUOUS
10
21.4476
20
-5.13476
11
21.6381
21
-5.23
0
LINE
8
BLACK
6
CONTINUOUS
10
21.6381
20
-5.23
11
21.7333
21
-5.32524
0
LINE
8
BLACK
6
CONTINUOUS
10
21.7333
20
-5.32524
11
21.8286
21
-5.51571
0
LINE
8
BLACK
6
CONTINUOUS
10
21.8286
20
-5.51571
11
21.9238
21
-5.89667
0
LINE
8
BLACK
6
CONTINUOUS
10
21.9238
20
-5.89667
11
21.9238
21
-6.37286
0
LINE
8
BLACK
6
CONTINUOUS
10
21.9238
20
-6.37286
11
21.8286
21
-6.75381
0
LINE
8
BLACK
6
CONTINUOUS
10
21.8286
20
-6.75381
11
21.7333
21
-6.94428
0
LINE
8
BLACK
6
CONTINUOUS
10
21.7333
20
-6.94428
11
21.6381
21
-7.03952
0
LINE
8
BLACK
6
CONTINUOUS
10
21.6381
20
-7.03952
11
21.4476
21
-7.13476
0
LINE
8
BLACK
6
CONTINUOUS
10
21.4476
20
-7.13476
11
21.2571
21
-7.13476
0
LINE
8
BLACK
6
CONTINUOUS
10
21.2571
20
-7.13476
11
21.0667
21
-7.03952
0
LINE
8
BLACK
6
CONTINUOUS
10
21.0667
20
-7.03952
11
20.9714
21
-6.94428
0
LINE
8
BLACK
6
CONTINUOUS
10
20.9714
20
-6.94428
11
20.8762
21
-6.75381
0
LINE
8
BLACK
6
CONTINUOUS
10
20.8762
20
-6.75381
11
20.781
21
-6.37286
0
LINE
8
BLACK
6
CONTINUOUS
10
20.781
20
-6.37286
11
20.781
21
-5.89667
0
LINE
8
BLACK
6
CONTINUOUS
10
20.781
20
-5.89667
11
20.8762
21
-5.51571
0
LINE
8
BLACK
6
CONTINUOUS
10
20.8762
20
-5.51571
11
20.9714
21
-5.32524
0
LINE
8
BLACK
6
CONTINUOUS
10
20.9714
20
-5.32524
11
21.0667
21
-5.23
0
LINE
8
BLACK
6
CONTINUOUS
10
21.0667
20
-5.23
11
21.2571
21
-5.13476
0
LINE
8
BLACK
6
CONTINUOUS
10
22.781
20
-6.94428
11
22.8762
21
-7.03952
0
LINE
8
BLACK
6
CONTINUOUS
10
22.8762
20
-7.03952
11
22.781
21
-7.13476
0
LINE
8
BLACK
6
CONTINUOUS
10
22.781
20
-7.13476
11
22.6857
21
-7.03952
0
LINE
8
BLACK
6
CONTINUOUS
10
22.6857
20
-7.03952
11
22.781
21
-6.94428
0
LINE
8
BLACK
6
CONTINUOUS
10
22.781
20
-6.94428
11
22.781
21
-7.13476
0
LINE
8
BLACK
6
CONTINUOUS
10
24.1143
20
-5.13476
11
24.3048
21
-5.13476
0
LINE
8
BLACK
6
CONTINUOUS
10
24.3048
20
-5.13476
11
24.4952
21
-5.23
0
LINE
8
BLACK
6
CONTINUOUS
10
24.4952
20
-5.23
11
24.5905
21
-5.32524
0
LINE
8
BLACK
6
CONTINUOUS
10
24.5905
20
-5.32524
11
24.6857
21
-5.51571
0
LINE
8
BLACK
6
CONTINUOUS
10
24.6857
20
-5.51571
11
24.781
21
-5.89667
0
LINE
8
BLACK
6
CONTINUOUS
10
24.781
20
-5.89667
11
24.781
21
-6.37286
0
LINE
8
BLACK
6
CONTINUOUS
10
24.781
20
-6.37286
11
24.6857
21
-6.75381
0
LINE
8
BLACK
6
CONTINUOUS
10
24.6857
20
-6.75381
11
24.5905
21
-6.94428
0
LINE
8
BLACK
6
CONTINUOUS
10
24.5905
20
-6.94428
11
24.4952
21
-7.03952
0
LINE
8
BLACK
6
CONTINUOUS
10
24.4952
20
-7.03952
11
24.3048
21
-7.13476
0
LINE
8
BLACK
6
CONTINUOUS
10
24.3048
20
-7.13476
11
24.1143
21
-7.13476
0
LINE
8
BLACK
6
CONTINUOUS
10
24.1143
20
-7.13476
11
23.9238
21
-7.03952
0
LINE
8
BLACK
6
CONTINUOUS
10
23.9238
20
-7.03952
11
23.8286
21
-6.94428
0
LINE
8
BLACK
6
CONTINUOUS
10
23.8286
20
-6.94428
11
23.7333
21
-6.75381
0
LINE
8
BLACK
6
CONTINUOUS
10
23.7333
20
-6.75381
11
23.6381
21
-6.37286
0
LINE
8
BLACK
6
CONTINUOUS
10
23.6381
20
-6.37286
11
23.6381
21
-5.89667
0
LINE
8
BLACK
6
CONTINUOUS
10
23.6381
20
-5.89667
11
23.7333
21
-5.51571
0
LINE
8
BLACK
6
CONTINUOUS
10
23.7333
20
-5.51571
11
23.8286
21
-5.32524
0
LINE
8
BLACK
6
CONTINUOUS
10
23.8286
20
-5.32524
11
23.9238
21
-5.23
0
LINE
8
BLACK
6
CONTINUOUS
10
23.9238
20
-5.23
11
24.1143
21
-5.13476
0
LINE
8
BLACK
6
CONTINUOUS
10
26.6857
20
-7.13476
11
25.5429
21
-7.13476
0
LINE
8
BLACK
6
CONTINUOUS
10
26.1143
20
-7.13476
11
26.1143
21
-5.13476
0
LINE
8
BLACK
6
CONTINUOUS
10
26.1143
20
-5.13476
11
25.9238
21
-5.42048
0
LINE
8
BLACK
6
CONTINUOUS
10
25.9238
20
-5.42048
11
25.7333
21
-5.61095
0
LINE
8
BLACK
6
CONTINUOUS
10
25.7333
20
-5.61095
11
25.5429
21
-5.70619
0
LINE
8
BLACK
6
CONTINUOUS
10
28.4952
20
-5.13476
11
27.5429
21
-5.13476
0
LINE
8
BLACK
6
CONTINUOUS
10
27.5429
20
-5.13476
11
27.4476
21
-6.08714
0
LINE
8
BLACK
6
CONTINUOUS
10
27.4476
20
-6.08714
11
27.5429
21
-5.9919
0
LINE
8
BLACK
6
CONTINUOUS
10
27.5429
20
-5.9919
11
27.7333
21
-5.89667
0
LINE
8
BLACK
6
CONTINUOUS
10
27.7333
20
-5.89667
11
28.2095
21
-5.89667
0
LINE
8
BLACK
6
CONTINUOUS
10
28.2095
20
-5.89667
11
28.4
21
-5.9919
0
LINE
8
BLACK
6
CONTINUOUS
10
28.4
20
-5.9919
11
28.4952
21
-6.08714
0
LINE
8
BLACK
6
CONTINUOUS
10
28.4952
20
-6.08714
11
28.5905
21
-6.27762
0
LINE
8
BLACK
6
CONTINUOUS
10
28.5905
20
-6.27762
11
28.5905
21
-6.75381
0
LINE
8
BLACK
6
CONTINUOUS
10
28.5905
20
-6.75381
11
28.4952
21
-6.94428
0
LINE
8
BLACK
6
CONTINUOUS
10
28.4952
20
-6.94428
11
28.4
21
-7.03952
0
LINE
8
BLACK
6
CONTINUOUS
10
28.4
20
-7.03952
11
28.2095
21
-7.13476
0
LINE
8
BLACK
6
CONTINUOUS
10
28.2095
20
-7.13476
11
27.7333
21
-7.13476
0
LINE
8
BLACK
6
CONTINUOUS
10
27.7333
20
-7.13476
11
27.5429
21
-7.03952
0
LINE
8
BLACK
6
CONTINUOUS
10
27.5429
20
-7.03952
11
27.4476
21
-6.94428
0
LINE
8
BLACK
6
CONTINUOUS
10
29.2571
20
-5.13476
11
30.5905
21
-5.13476
0
LINE
8
BLACK
6
CONTINUOUS
10
30.5905
20
-5.13476
11
29.7333
21
-7.13476
0
LINE
8
BLACK
6
CONTINUOUS
10
31.2571
20
-5.13476
11
31.2571
21
-5.51571
0
LINE
8
BLACK
6
CONTINUOUS
10
32.019
20
-5.13476
11
32.019
21
-5.51571
0
LINE
8
BLACK
6
CONTINUOUS
10
34.6476
20
-7.89667
11
34.5524
21
-7.80143
0
LINE
8
BLACK
6
CONTINUOUS
10
34.5524
20
-7.80143
11
34.3619
21
-7.51571
0
LINE
8
BLACK
6
CONTINUOUS
10
34.3619
20
-7.51571
11
34.2667
21
-7.32524
0
LINE
8
BLACK
6
CONTINUOUS
10
34.2667
20
-7.32524
11
34.1714
21
-7.03952
0
LINE
8
BLACK
6
CONTINUOUS
10
34.1714
20
-7.03952
11
34.0762
21
-6.56333
0
LINE
8
BLACK
6
CONTINUOUS
10
34.0762
20
-6.56333
11
34.0762
21
-6.18238
0
LINE
8
BLACK
6
CONTINUOUS
10
34.0762
20
-6.18238
11
34.1714
21
-5.70619
0
LINE
8
BLACK
6
CONTINUOUS
10
34.1714
20
-5.70619
11
34.2667
21
-5.42048
0
LINE
8
BLACK
6
CONTINUOUS
10
34.2667
20
-5.42048
11
34.3619
21
-5.23
0
LINE
8
BLACK
6
CONTINUOUS
10
34.3619
20
-5.23
11
34.5524
21
-4.94428
0
LINE
8
BLACK
6
CONTINUOUS
10
34.5524
20
-4.94428
11
34.6476
21
-4.84905
0
LINE
8
BLACK
6
CONTINUOUS
10
36.4571
20
-7.13476
11
35.3143
21
-7.13476
0
LINE
8
BLACK
6
CONTINUOUS
10
35.8857
20
-7.13476
11
35.8857
21
-5.13476
0
LINE
8
BLACK
6
CONTINUOUS
10
35.8857
20
-5.13476
11
35.6952
21
-5.42048
0
LINE
8
BLACK
6
CONTINUOUS
10
35.6952
20
-5.42048
11
35.5048
21
-5.61095
0
LINE
8
BLACK
6
CONTINUOUS
10
35.5048
20
-5.61095
11
35.3143
21
-5.70619
0
LINE
8
BLACK
6
CONTINUOUS
10
38.5143
20
-7.13476
11
38.5143
21
-5.13476
0
LINE
8
BLACK
6
CONTINUOUS
10
39.3714
20
-7.13476
11
39.3714
21
-6.08714
0
LINE
8
BLACK
6
CONTINUOUS
10
39.3714
20
-6.08714
11
39.2762
21
-5.89667
0
LINE
8
BLACK
6
CONTINUOUS
10
39.2762
20
-5.89667
11
39.0857
21
-5.80143
0
LINE
8
BLACK
6
CONTINUOUS
10
39.0857
20
-5.80143
11
38.8
21
-5.80143
0
LINE
8
BLACK
6
CONTINUOUS
10
38.8
20
-5.80143
11
38.6095
21
-5.89667
0
LINE
8
BLACK
6
CONTINUOUS
10
38.6095
20
-5.89667
11
38.5143
21
-5.9919
0
LINE
8
BLACK
6
CONTINUOUS
10
40.6095
20
-7.13476
11
40.419
21
-7.03952
0
LINE
8
BLACK
6
CONTINUOUS
10
40.419
20
-7.03952
11
40.3238
21
-6.94428
0
LINE
8
BLACK
6
CONTINUOUS
10
40.3238
20
-6.94428
11
40.2286
21
-6.75381
0
LINE
8
BLACK
6
CONTINUOUS
10
40.2286
20
-6.75381
11
40.2286
21
-6.18238
0
LINE
8
BLACK
6
CONTINUOUS
10
40.2286
20
-6.18238
11
40.3238
21
-5.9919
0
LINE
8
BLACK
6
CONTINUOUS
10
40.3238
20
-5.9919
11
40.419
21
-5.89667
0
LINE
8
BLACK
6
CONTINUOUS
10
40.419
20
-5.89667
11
40.6095
21
-5.80143
0
LINE
8
BLACK
6
CONTINUOUS
10
40.6095
20
-5.80143
11
40.8952
21
-5.80143
0
LINE
8
BLACK
6
CONTINUOUS
10
40.8952
20
-5.80143
11
41.0857
21
-5.89667
0
LINE
8
BLACK
6
CONTINUOUS
10
41.0857
20
-5.89667
11
41.181
21
-5.9919
0
LINE
8
BLACK
6
CONTINUOUS
10
41.181
20
-5.9919
11
41.2762
21
-6.18238
0
LINE
8
BLACK
6
CONTINUOUS
10
41.2762
20
-6.18238
11
41.2762
21
-6.75381
0
LINE
8
BLACK
6
CONTINUOUS
10
41.2762
20
-6.75381
11
41.181
21
-6.94428
0
LINE
8
BLACK
6
CONTINUOUS
10
41.181
20
-6.94428
11
41.0857
21
-7.03952
0
LINE
8
BLACK
6
CONTINUOUS
10
41.0857
20
-7.03952
11
40.8952
21
-7.13476
0
LINE
8
BLACK
6
CONTINUOUS
10
40.8952
20
-7.13476
11
40.6095
21
-7.13476
0
LINE
8
BLACK
6
CONTINUOUS
10
42.419
20
-7.13476
11
42.2286
21
-7.03952
0
LINE
8
BLACK
6
CONTINUOUS
10
42.2286
20
-7.03952
11
42.1333
21
-6.84905
0
LINE
8
BLACK
6
CONTINUOUS
10
42.1333
20
-6.84905
11
42.1333
21
-5.13476
0
LINE
8
BLACK
6
CONTINUOUS
10
43.9429
20
-7.03952
11
43.7524
21
-7.13476
0
LINE
8
BLACK
6
CONTINUOUS
10
43.7524
20
-7.13476
11
43.3714
21
-7.13476
0
LINE
8
BLACK
6
CONTINUOUS
10
43.3714
20
-7.13476
11
43.181
21
-7.03952
0
LINE
8
BLACK
6
CONTINUOUS
10
43.181
20
-7.03952
11
43.0857
21
-6.84905
0
LINE
8
BLACK
6
CONTINUOUS
10
43.0857
20
-6.84905
11
43.0857
21
-6.08714
0
LINE
8
BLACK
6
CONTINUOUS
10
43.0857
20
-6.08714
11
43.181
21
-5.89667
0
LINE
8
BLACK
6
CONTINUOUS
10
43.181
20
-5.89667
11
43.3714
21
-5.80143
0
LINE
8
BLACK
6
CONTINUOUS
10
43.3714
20
-5.80143
11
43.7524
21
-5.80143
0
LINE
8
BLACK
6
CONTINUOUS
10
43.7524
20
-5.80143
11
43.9429
21
-5.89667
0
LINE
8
BLACK
6
CONTINUOUS
10
43.9429
20
-5.89667
11
44.0381
21
-6.08714
0
LINE
8
BLACK
6
CONTINUOUS
10
44.0381
20
-6.08714
11
44.0381
21
-6.27762
0
LINE
8
BLACK
6
CONTINUOUS
10
44.0381
20
-6.27762
11
43.0857
21
-6.46809
0
LINE
8
BLACK
6
CONTINUOUS
10
44.7048
20
-7.89667
11
44.8
21
-7.80143
0
LINE
8
BLACK
6
CONTINUOUS
10
44.8
20
-7.80143
11
44.9905
21
-7.51571
0
LINE
8
BLACK
6
CONTINUOUS
10
44.9905
20
-7.51571
11
45.0857
21
-7.32524
0
LINE
8
BLACK
6
CONTINUOUS
10
45.0857
20
-7.32524
11
45.181
21
-7.03952
0
LINE
8
BLACK
6
CONTINUOUS
10
45.181
20
-7.03952
11
45.2762
21
-6.56333
0
LINE
8
BLACK
6
CONTINUOUS
10
45.2762
20
-6.56333
11
45.2762
21
-6.18238
0
LINE
8
BLACK
6
CONTINUOUS
10
45.2762
20
-6.18238
11
45.181
21
-5.70619
0
LINE
8
BLACK
6
CONTINUOUS
10
45.181
20
-5.70619
11
45.0857
21
-5.42048
0
LINE
8
BLACK
6
CONTINUOUS
10
45.0857
20
-5.42048
11
44.9905
21
-5.23
0
LINE
8
BLACK
6
CONTINUOUS
10
44.9905
20
-5.23
11
44.8
21
-4.94428
0
LINE
8
BLACK
6
CONTINUOUS
10
44.8
20
-4.94428
11
44.7048
21
-4.84905
0
CIRCLE
8
BLACK
10
-0.5
20
-9.04
40
0.5
0
LINE
8
BLACK
6
CONTINUOUS
10
3.52381
20
-9.77476
11
2.38095
21
-9.77476
0
LINE
8
BLACK
6
CONTINUOUS
10
2.95238
20
-9.77476
11
2.95238
21
-7.77476
0
LINE
8
BLACK
6
CONTINUOUS
10
2.95238
20
-7.77476
11
2.7619
21
-8.06048
0
LINE
8
BLACK
6
CONTINUOUS
10
2.7619
20
-8.06048
11
2.57143
21
-8.25095
0
LINE
8
BLACK
6
CONTINUOUS
10
2.57143
20
-8.25095
11
2.38095
21
-8.34619
0
LINE
8
BLACK
6
CONTINUOUS
10
4.38095
20
-9.58428
11
4.47619
21
-9.67952
0
LINE
8
BLACK
6
CONTINUOUS
10
4.47619
20
-9.67952
11
4.38095
21
-9.77476
0
LINE
8
BLACK
6
CONTINUOUS
10
4.38095
20
-9.77476
11
4.28571
21
-9.67952
0
LINE
8
BLACK
6
CONTINUOUS
10
4.28571
20
-9.67952
11
4.38095
21
-9.58428
0
LINE
8
BLACK
6
CONTINUOUS
10
4.38095
20
-9.58428
11
4.38095
21
-9.77476
0
LINE
8
BLACK
6
CONTINUOUS
10
5.71428
20
-7.77476
11
5.90476
21
-7.77476
0
LINE
8
BLACK
6
CONTINUOUS
10
5.90476
20
-7.77476
11
6.09524
21
-7.87
0
LINE
8
BLACK
6
CONTINUOUS
10
6.09524
20
-7.87
11
6.19048
21
-7.96524
0
LINE
8
BLACK
6
CONTINUOUS
10
6.19048
20
-7.96524
11
6.28571
21
-8.15571
0
LINE
8
BLACK
6
CONTINUOUS
10
6.28571
20
-8.15571
11
6.38095
21
-8.53667
0
LINE
8
BLACK
6
CONTINUOUS
10
6.38095
20
-8.53667
11
6.38095
21
-9.01286
0
LINE
8
BLACK
6
CONTINUOUS
10
6.38095
20
-9.01286
11
6.28571
21
-9.39381
0
LINE
8
BLACK
6
CONTINUOUS
10
6.28571
20
-9.39381
11
6.19048
21
-9.58428
0
LINE
8
BLACK
6
CONTINUOUS
10
6.19048
20
-9.58428
11
6.09524
21
-9.67952
0
LINE
8
BLACK
6
CONTINUOUS
10
6.09524
20
-9.67952
11
5.90476
21
-9.77476
0
LINE
8
BLACK
6
CONTINUOUS
10
5.90476
20
-9.77476
11
5.71428
21
-9.77476
0
LINE
8
BLACK
6
CONTINUOUS
10
5.71428
20
-9.77476
11
5.52381
21
-9.67952
0
LINE
8
BLACK
6
CONTINUOUS
10
5.52381
20
-9.67952
11
5.42857
21
-9.58428
0
LINE
8
BLACK
6
CONTINUOUS
10
5.42857
20
-9.58428
11
5.33333
21
-9.39381
0
LINE
8
BLACK
6
CONTINUOUS
10
5.33333
20
-9.39381
11
5.23809
21
-9.01286
0
LINE
8
BLACK
6
CONTINUOUS
10
5.23809
20
-9.01286
11
5.23809
21
-8.53667
0
LINE
8
BLACK
6
CONTINUOUS
10
5.23809
20
-8.53667
11
5.33333
21
-8.15571
0
LINE
8
BLACK
6
CONTINUOUS
10
5.33333
20
-8.15571
11
5.42857
21
-7.96524
0
LINE
8
BLACK
6
CONTINUOUS
10
5.42857
20
-7.96524
11
5.52381
21
-7.87
0
LINE
8
BLACK
6
CONTINUOUS
10
5.52381
20
-7.87
11
5.71428
21
-7.77476
0
LINE
8
BLACK
6
CONTINUOUS
10
7.61905
20
-7.77476
11
7.80952
21
-7.77476
0
LINE
8
BLACK
6
CONTINUOUS
10
7.80952
20
-7.77476
11
8
21
-7.87
0
LINE
8
BLACK
6
CONTINUOUS
10
8
20
-7.87
11
8.09524
21
-7.96524
0
LINE
8
BLACK
6
CONTINUOUS
10
8.09524
20
-7.96524
11
8.19048
21
-8.15571
0
LINE
8
BLACK
6
CONTINUOUS
10
8.19048
20
-8.15571
11
8.28571
21
-8.53667
0
LINE
8
BLACK
6
CONTINUOUS
10
8.28571
20
-8.53667
11
8.28571
21
-9.01286
0
LINE
8
BLACK
6
CONTINUOUS
10
8.28571
20
-9.01286
11
8.19048
21
-9.39381
0
LINE
8
BLACK
6
CONTINUOUS
10
8.19048
20
-9.39381
11
8.09524
21
-9.58428
0
LINE
8
BLACK
6
CONTINUOUS
10
8.09524
20
-9.58428
11
8
21
-9.67952
0
LINE
8
BLACK
6
CONTINUOUS
10
8
20
-9.67952
11
7.80952
21
-9.77476
0
LINE
8
BLACK
6
CONTINUOUS
10
7.80952
20
-9.77476
11
7.61905
21
-9.77476
0
LINE
8
BLACK
6
CONTINUOUS
10
7.61905
20
-9.77476
11
7.42857
21
-9.67952
0
LINE
8
BLACK
6
CONTINUOUS
10
7.42857
20
-9.67952
11
7.33333
21
-9.58428
0
LINE
8
BLACK
6
CONTINUOUS
10
7.33333
20
-9.58428
11
7.23809
21
-9.39381
0
LINE
8
BLACK
6
CONTINUOUS
10
7.23809
20
-9.39381
11
7.14286
21
-9.01286
0
LINE
8
BLACK
6
CONTINUOUS
10
7.14286
20
-9.01286
11
7.14286
21
-8.53667
0
LINE
8
BLACK
6
CONTINUOUS
10
7.14286
20
-8.53667
11
7.23809
21
-8.15571
0
LINE
8
BLACK
6
CONTINUOUS
10
7.23809
20
-8.15571
11
7.33333
21
-7.96524
0
LINE
8
BLACK
6
CONTINUOUS
10
7.33333
20
-7.96524
11
7.42857
21
-7.87
0
LINE
8
BLACK
6
CONTINUOUS
10
7.42857
20
-7.87
11
7.61905
21
-7.77476
0
LINE
8
BLACK
6
CONTINUOUS
10
9.52381
20
-7.77476
11
9.71429
21
-7.77476
0
LINE
8
BLACK
6
CONTINUOUS
10
9.71429
20
-7.77476
11
9.90476
21
-7.87
0
LINE
8
BLACK
6
CONTINUOUS
10
9.90476
20
-7.87
11
10
21
-7.96524
0
LINE
8
BLACK
6
CONTINUOUS
10
10
20
-7.96524
11
10.0952
21
-8.15571
0
LINE
8
BLACK
6
CONTINUOUS
10
10.0952
20
-8.15571
11
10.1905
21
-8.53667
0
LINE
8
BLACK
6
CONTINUOUS
10
10.1905
20
-8.53667
11
10.1905
21
-9.01286
0
LINE
8
BLACK
6
CONTINUOUS
10
10.1905
20
-9.01286
11
10.0952
21
-9.39381
0
LINE
8
BLACK
6
CONTINUOUS
10
10.0952
20
-9.39381
11
10
21
-9.58428
0
LINE
8
BLACK
6
CONTINUOUS
10
10
20
-9.58428
11
9.90476
21
-9.67952
0
LINE
8
BLACK
6
CONTINUOUS
10
9.90476
20
-9.67952
11
9.71429
21
-9.77476
0
LINE
8
BLACK
6
CONTINUOUS
10
9.71429
20
-9.77476
11
9.52381
21
-9.77476
0
LINE
8
BLACK
6
CONTINUOUS
10
9.52381
20
-9.77476
11
9.33333
21
-9.67952
0
LINE
8
BLACK
6
CONTINUOUS
10
9.33333
20
-9.67952
11
9.23809
21
-9.58428
0
LINE
8
BLACK
6
CONTINUOUS
10
9.23809
20
-9.58428
11
9.14286
21
-9.39381
0
LINE
8
BLACK
6
CONTINUOUS
10
9.14286
20
-9.39381
11
9.04762
21
-9.01286
0
LINE
8
BLACK
6
CONTINUOUS
10
9.04762
20
-9.01286
11
9.04762
21
-8.53667
0
LINE
8
BLACK
6
CONTINUOUS
10
9.04762
20
-8.53667
11
9.14286
21
-8.15571
0
LINE
8
BLACK
6
CONTINUOUS
10
9.14286
20
-8.15571
11
9.23809
21
-7.96524
0
LINE
8
BLACK
6
CONTINUOUS
10
9.23809
20
-7.96524
11
9.33333
21
-7.87
0
LINE
8
BLACK
6
CONTINUOUS
10
9.33333
20
-7.87
11
9.52381
21
-7.77476
0
LINE
8
BLACK
6
CONTINUOUS
10
11.0476
20
-9.77476
11
11.0476
21
-8.44143
0
LINE
8
BLACK
6
CONTINUOUS
10
11.0476
20
-8.6319
11
11.1429
21
-8.53667
0
LINE
8
BLACK
6
CONTINUOUS
10
11.1429
20
-8.53667
11
11.3333
21
-8.44143
0
LINE
8
BLACK
6
CONTINUOUS
10
11.3333
20
-8.44143
11
11.619
21
-8.44143
0
LINE
8
BLACK
6
CONTINUOUS
10
11.619
20
-8.44143
11
11.8095
21
-8.53667
0
LINE
8
BLACK
6
CONTINUOUS
10
11.8095
20
-8.53667
11
11.9048
21
-8.72714
0
LINE
8
BLACK
6
CONTINUOUS
10
11.9048
20
-8.72714
11
11.9048
21
-9.77476
0
LINE
8
BLACK
6
CONTINUOUS
10
11.9048
20
-8.72714
11
12
21
-8.53667
0
LINE
8
BLACK
6
CONTINUOUS
10
12
20
-8.53667
11
12.1905
21
-8.44143
0
LINE
8
BLACK
6
CONTINUOUS
10
12.1905
20
-8.44143
11
12.4762
21
-8.44143
0
LINE
8
BLACK
6
CONTINUOUS
10
12.4762
20
-8.44143
11
12.6667
21
-8.53667
0
LINE
8
BLACK
6
CONTINUOUS
10
12.6667
20
-8.53667
11
12.7619
21
-8.72714
0
LINE
8
BLACK
6
CONTINUOUS
10
12.7619
20
-8.72714
11
12.7619
21
-9.77476
0
LINE
8
BLACK
6
CONTINUOUS
10
13.7143
20
-9.77476
11
13.7143
21
-8.44143
0
LINE
8
BLACK
6
CONTINUOUS
10
13.7143
20
-8.6319
11
13.8095
21
-8.53667
0
LINE
8
BLACK
6
CONTINUOUS
10
13.8095
20
-8.53667
11
14
21
-8.44143
0
LINE
8
BLACK
6
CONTINUOUS
10
14
20
-8.44143
11
14.2857
21
-8.44143
0
LINE
8
BLACK
6
CONTINUOUS
10
14.2857
20
-8.44143
11
14.4762
21
-8.53667
0
LINE
8
BLACK
6
CONTINUOUS
10
14.4762
20
-8.53667
11
14.5714
21
-8.72714
0
LINE
8
BLACK
6
CONTINUOUS
10
14.5714
20
-8.72714
11
14.5714
21
-9.77476
0
LINE
8
BLACK
6
CONTINUOUS
10
14.5714
20
-8.72714
11
14.6667
21
-8.53667
0
LINE
8
BLACK
6
CONTINUOUS
10
14.6667
20
-8.53667
11
14.8571
21
-8.44143
0
LINE
8
BLACK
6
CONTINUOUS
10
14.8571
20
-8.44143
11
15.1429
21
-8.44143
0
LINE
8
BLACK
6
CONTINUOUS
10
15.1429
20
-8.44143
11
15.3333
21
-8.53667
0
LINE
8
BLACK
6
CONTINUOUS
10
15.3333
20
-8.53667
11
15.4286
21
-8.72714
0
LINE
8
BLACK
6
CONTINUOUS
10
15.4286
20
-8.72714
11
15.4286
21
-9.77476
0
LINE
8
BLACK
6
CONTINUOUS
10
19.0095
20
-7.67952
11
17.2952
21
-10.251
0
LINE
8
BLACK
6
CONTINUOUS
10
21.2571
20
-7.77476
11
21.4476
21
-7.77476
0
LINE
8
BLACK
6
CONTINUOUS
10
21.4476
20
-7.77476
11
21.6381
21
-7.87
0
LINE
8
BLACK
6
CONTINUOUS
10
21.6381
20
-7.87
11
21.7333
21
-7.96524
0
LINE
8
BLACK
6
CONTINUOUS
10
21.7333
20
-7.96524
11
21.8286
21
-8.15571
0
LINE
8
BLACK
6
CONTINUOUS
10
21.8286
20
-8.15571
11
21.9238
21
-8.53667
0
LINE
8
BLACK
6
CONTINUOUS
10
21.9238
20
-8.53667
11
21.9238
21
-9.01286
0
LINE
8
BLACK
6
CONTINUOUS
10
21.9238
20
-9.01286
11
21.8286
21
-9.39381
0
LINE
8
BLACK
6
CONTINUOUS
10
21.8286
20
-9.39381
11
21.7333
21
-9.58428
0
LINE
8
BLACK
6
CONTINUOUS
10
21.7333
20
-9.58428
11
21.6381
21
-9.67952
0
LINE
8
BLACK
6
CONTINUOUS
10
21.6381
20
-9.67952
11
21.4476
21
-9.77476
0
LINE
8
BLACK
6
CONTINUOUS
10
21.4476
20
-9.77476
11
21.2571
21
-9.77476
0
LINE
8
BLACK
6
CONTINUOUS
10
21.2571
20
-9.77476
11
21.0667
21
-9.67952
0
LINE
8
BLACK
6
CONTINUOUS
10
21.0667
20
-9.67952
11
20.9714
21
-9.58428
0
LINE
8
BLACK
6
CONTINUOUS
10
20.9714
20
-9.58428
11
20.8762
21
-9.39381
0
LINE
8
BLACK
6
CONTINUOUS
10
20.8762
20
-9.39381
11
20.781
21
-9.01286
0
LINE
8
BLACK
6
CONTINUOUS
10
20.781
20
-9.01286
11
20.781
21
-8.53667
0
LINE
8
BLACK
6
CONTINUOUS
10
20.781
20
-8.53667
11
20.8762
21
-8.15571
0
LINE
8
BLACK
6
CONTINUOUS
10
20.8762
20
-8.15571
11
20.9714
21
-7.96524
0
LINE
8
BLACK
6
CONTINUOUS
10
20.9714
20
-7.96524
11
21.0667
21
-7.87
0
LINE
8
BLACK
6
CONTINUOUS
10
21.0667
20
-7.87
11
21.2571
21
-7.77476
0
LINE
8
BLACK
6
CONTINUOUS
10
22.781
20
-9.58428
11
22.8762
21
-9.67952
0
LINE
8
BLACK
6
CONTINUOUS
10
22.8762
20
-9.67952
11
22.781
21
-9.77476
0
LINE
8
BLACK
6
CONTINUOUS
10
22.781
20
-9.77476
11
22.6857
21
-9.67952
0
LINE
8
BLACK
6
CONTINUOUS
10
22.6857
20
-9.67952
11
22.781
21
-9.58428
0
LINE
8
BLACK
6
CONTINUOUS
10
22.781
20
-9.58428
11
22.781
21
-9.77476
0
LINE
8
BLACK
6
CONTINUOUS
10
24.1143
20
-7.77476
11
24.3048
21
-7.77476
0
LINE
8
BLACK
6
CONTINUOUS
10
24.3048
20
-7.77476
11
24.4952
21
-7.87
0
LINE
8
BLACK
6
CONTINUOUS
10
24.4952
20
-7.87
11
24.5905
21
-7.96524
0
LINE
8
BLACK
6
CONTINUOUS
10
24.5905
20
-7.96524
11
24.6857
21
-8.15571
0
LINE
8
BLACK
6
CONTINUOUS
10
24.6857
20
-8.15571
11
24.781
21
-8.53667
0
LINE
8
BLACK
6
CONTINUOUS
10
24.781
20
-8.53667
11
24.781
21
-9.01286
0
LINE
8
BLACK
6
CONTINUOUS
10
24.781
20
-9.01286
11
24.6857
21
-9.39381
0
LINE
8
BLACK
6
CONTINUOUS
10
24.6857
20
-9.39381
11
24.5905
21
-9.58428
0
LINE
8
BLACK
6
CONTINUOUS
10
24.5905
20
-9.58428
11
24.4952
21
-9.67952
0
LINE
8
BLACK
6
CONTINUOUS
10
24.4952
20
-9.67952
11
24.3048
21
-9.77476
0
LINE
8
BLACK
6
CONTINUOUS
10
24.3048
20
-9.77476
11
24.1143
21
-9.77476
0
LINE
8
BLACK
6
CONTINUOUS
10
24.1143
20
-9.77476
11
23.9238
21
-9.67952
0
LINE
8
BLACK
6
CONTINUOUS
10
23.9238
20
-9.67952
11
23.8286
21
-9.58428
0
LINE
8
BLACK
6
CONTINUOUS
10
23.8286
20
-9.58428
11
23.7333
21
-9.39381
0
LINE
8
BLACK
6
CONTINUOUS
10
23.7333
20
-9.39381
11
23.6381
21
-9.01286
0
LINE
8
BLACK
6
CONTINUOUS
10
23.6381
20
-9.01286
11
23.6381
21
-8.53667
0
LINE
8
BLACK
6
CONTINUOUS
10
23.6381
20
-8.53667
11
23.7333
21
-8.15571
0
LINE
8
BLACK
6
CONTINUOUS
10
23.7333
20
-8.15571
11
23.8286
21
-7.96524
0
LINE
8
BLACK
6
CONTINUOUS
10
23.8286
20
-7.96524
11
23.9238
21
-7.87
0
LINE
8
BLACK
6
CONTINUOUS
10
23.9238
20
-7.87
11
24.1143
21
-7.77476
0
LINE
8
BLACK
6
CONTINUOUS
10
25.4476
20
-7.77476
11
26.6857
21
-7.77476
0
LINE
8
BLACK
6
CONTINUOUS
10
26.6857
20
-7.77476
11
26.019
21
-8.53667
0
LINE
8
BLACK
6
CONTINUOUS
10
26.019
20
-8.53667
11
26.3048
21
-8.53667
0
LINE
8
BLACK
6
CONTINUOUS
10
26.3048
20
-8.53667
11
26.4952
21
-8.6319
0
LINE
8
BLACK
6
CONTINUOUS
10
26.4952
20
-8.6319
11
26.5905
21
-8.72714
0
LINE
8
BLACK
6
CONTINUOUS
10
26.5905
20
-8.72714
11
26.6857
21
-8.91762
0
LINE
8
BLACK
6
CONTINUOUS
10
26.6857
20
-8.91762
11
26.6857
21
-9.39381
0
LINE
8
BLACK
6
CONTINUOUS
10
26.6857
20
-9.39381
11
26.5905
21
-9.58428
0
LINE
8
BLACK
6
CONTINUOUS
10
26.5905
20
-9.58428
11
26.4952
21
-9.67952
0
LINE
8
BLACK
6
CONTINUOUS
10
26.4952
20
-9.67952
11
26.3048
21
-9.77476
0
LINE
8
BLACK
6
CONTINUOUS
10
26.3048
20
-9.77476
11
25.7333
21
-9.77476
0
LINE
8
BLACK
6
CONTINUOUS
10
25.7333
20
-9.77476
11
25.5429
21
-9.67952
0
LINE
8
BLACK
6
CONTINUOUS
10
25.5429
20
-9.67952
11
25.4476
21
-9.58428
0
LINE
8
BLACK
6
CONTINUOUS
10
27.6381
20
-9.77476
11
28.019
21
-9.77476
0
LINE
8
BLACK
6
CONTINUOUS
10
28.019
20
-9.77476
11
28.2095
21
-9.67952
0
LINE
8
BLACK
6
CONTINUOUS
10
28.2095
20
-9.67952
11
28.3048
21
-9.58428
0
LINE
8
BLACK
6
CONTINUOUS
10
28.3048
20
-9.58428
11
28.4952
21
-9.29857
0
LINE
8
BLACK
6
CONTINUOUS
10
28.4952
20
-9.29857
11
28.5905
21
-8.91762
0
LINE
8
BLACK
6
CONTINUOUS
10
28.5905
20
-8.91762
11
28.5905
21
-8.15571
0
LINE
8
BLACK
6
CONTINUOUS
10
28.5905
20
-8.15571
11
28.4952
21
-7.96524
0
LINE
8
BLACK
6
CONTINUOUS
10
28.4952
20
-7.96524
11
28.4
21
-7.87
0
LINE
8
BLACK
6
CONTINUOUS
10
28.4
20
-7.87
11
28.2095
21
-7.77476
0
LINE
8
BLACK
6
CONTINUOUS
10
28.2095
20
-7.77476
11
27.8286
21
-7.77476
0
LINE
8
BLACK
6
CONTINUOUS
10
27.8286
20
-7.77476
11
27.6381
21
-7.87
0
LINE
8
BLACK
6
CONTINUOUS
10
27.6381
20
-7.87
11
27.5429
21
-7.96524
0
LINE
8
BLACK
6
CONTINUOUS
10
27.5429
20
-7.96524
11
27.4476
21
-8.15571
0
LINE
8
BLACK
6
CONTINUOUS
10
27.4476
20
-8.15571
11
27.4476
21
-8.6319
0
LINE
8
BLACK
6
CONTINUOUS
10
27.4476
20
-8.6319
11
27.5429
21
-8.82238
0
LINE
8
BLACK
6
CONTINUOUS
10
27.5429
20
-8.82238
11
27.6381
21
-8.91762
0
LINE
8
BLACK
6
CONTINUOUS
10
27.6381
20
-8.91762
11
27.8286
21
-9.01286
0
LINE
8
BLACK
6
CONTINUOUS
10
27.8286
20
-9.01286
11
28.2095
21
-9.01286
0
LINE
8
BLACK
6
CONTINUOUS
10
28.2095
20
-9.01286
11
28.4
21
-8.91762
0
LINE
8
BLACK
6
CONTINUOUS
10
28.4
20
-8.91762
11
28.4952
21
-8.82238
0
LINE
8
BLACK
6
CONTINUOUS
10
28.4952
20
-8.82238
11
28.5905
21
-8.6319
0
LINE
8
BLACK
6
CONTINUOUS
10
30.3048
20
-8.44143
11
30.3048
21
-9.77476
0
LINE
8
BLACK
6
CONTINUOUS
10
29.8286
20
-7.67952
11
29.3524
21
-9.10809
0
LINE
8
BLACK
6
CONTINUOUS
10
29.3524
20
-9.10809
11
30.5905
21
-9.10809
0
LINE
8
BLACK
6
CONTINUOUS
10
31.2571
20
-7.77476
11
31.2571
21
-8.15571
0
LINE
8
BLACK
6
CONTINUOUS
10
32.019
20
-7.77476
11
32.019
21
-8.15571
0
LINE
8
BLACK
6
CONTINUOUS
10
34.6476
20
-10.5367
11
34.5524
21
-10.4414
0
LINE
8
BLACK
6
CONTINUOUS
10
34.5524
20
-10.4414
11
34.3619
21
-10.1557
0
LINE
8
BLACK
6
CONTINUOUS
10
34.3619
20
-10.1557
11
34.2667
21
-9.96524
0
LINE
8
BLACK
6
CONTINUOUS
10
34.2667
20
-9.96524
11
34.1714
21
-9.67952
0
LINE
8
BLACK
6
CONTINUOUS
10
34.1714
20
-9.67952
11
34.0762
21
-9.20333
0
LINE
8
BLACK
6
CONTINUOUS
10
34.0762
20
-9.20333
11
34.0762
21
-8.82238
0
LINE
8
BLACK
6
CONTINUOUS
10
34.0762
20
-8.82238
11
34.1714
21
-8.34619
0
LINE
8
BLACK
6
CONTINUOUS
10
34.1714
20
-8.34619
11
34.2667
21
-8.06048
0
LINE
8
BLACK
6
CONTINUOUS
10
34.2667
20
-8.06048
11
34.3619
21
-7.87
0
LINE
8
BLACK
6
CONTINUOUS
10
34.3619
20
-7.87
11
34.5524
21
-7.58428
0
LINE
8
BLACK
6
CONTINUOUS
10
34.5524
20
-7.58428
11
34.6476
21
-7.48905
0
LINE
8
BLACK
6
CONTINUOUS
10
35.219
20
-7.77476
11
36.5524
21
-7.77476
0
LINE
8
BLACK
6
CONTINUOUS
10
36.5524
20
-7.77476
11
35.6952
21
-9.77476
0
LINE
8
BLACK
6
CONTINUOUS
10
37.6
20
-8.6319
11
37.4095
21
-8.53667
0
LINE
8
BLACK
6
CONTINUOUS
10
37.4095
20
-8.53667
11
37.3143
21
-8.44143
0
LINE
8
BLACK
6
CONTINUOUS
10
37.3143
20
-8.44143
11
37.219
21
-8.25095
0
LINE
8
BLACK
6
CONTINUOUS
10
37.219
20
-8.25095
11
37.219
21
-8.15571
0
LINE
8
BLACK
6
CONTINUOUS
10
37.219
20
-8.15571
11
37.3143
21
-7.96524
0
LINE
8
BLACK
6
CONTINUOUS
10
37.3143
20
-7.96524
11
37.4095
21
-7.87
0
LINE
8
BLACK
6
CONTINUOUS
10
37.4095
20
-7.87
11
37.6
21
-7.77476
0
LINE
8
BLACK
6
CONTINUOUS
10
37.6
20
-7.77476
11
37.981
21
-7.77476
0
LINE
8
BLACK
6
CONTINUOUS
10
37.981
20
-7.77476
11
38.1714
21
-7.87
0
LINE
8
BLACK
6
CONTINUOUS
10
38.1714
20
-7.87
11
38.2667
21
-7.96524
0
LINE
8
BLACK
6
CONTINUOUS
10
38.2667
20
-7.96524
11
38.3619
21
-8.15571
0
LINE
8
BLACK
6
CONTINUOUS
10
38.3619
20
-8.15571
11
38.3619
21
-8.25095
0
LINE
8
BLACK
6
CONTINUOUS
10
38.3619
20
-8.25095
11
38.2667
21
-8.44143
0
LINE
8
BLACK
6
CONTINUOUS
10
38.2667
20
-8.44143
11
38.1714
21
-8.53667
0
LINE
8
BLACK
6
CONTINUOUS
10
38.1714
20
-8.53667
11
37.981
21
-8.6319
0
LINE
8
BLACK
6
CONTINUOUS
10
37.981
20
-8.6319
11
37.6
21
-8.6319
0
LINE
8
BLACK
6
CONTINUOUS
10
37.6
20
-8.6319
11
37.4095
21
-8.72714
0
LINE
8
BLACK
6
CONTINUOUS
10
37.4095
20
-8.72714
11
37.3143
21
-8.82238
0
LINE
8
BLACK
6
CONTINUOUS
10
37.3143
20
-8.82238
11
37.219
21
-9.01286
0
LINE
8
BLACK
6
CONTINUOUS
10
37.219
20
-9.01286
11
37.219
21
-9.39381
0
LINE
8
BLACK
6
CONTINUOUS
10
37.219
20
-9.39381
11
37.3143
21
-9.58428
0
LINE
8
BLACK
6
CONTINUOUS
10
37.3143
20
-9.58428
11
37.4095
21
-9.67952
0
LINE
8
BLACK
6
CONTINUOUS
10
37.4095
20
-9.67952
11
37.6
21
-9.77476
0
LINE
8
BLACK
6
CONTINUOUS
10
37.6
20
-9.77476
11
37.981
21
-9.77476
0
LINE
8
BLACK
6
CONTINUOUS
10
37.981
20
-9.77476
11
38.1714
21
-9.67952
0
LINE
8
BLACK
6
CONTINUOUS
10
38.1714
20
-9.67952
11
38.2667
21
-9.58428
0
LINE
8
BLACK
6
CONTINUOUS
10
38.2667
20
-9.58428
11
38.3619
21
-9.39381
0
LINE
8
BLACK
6
CONTINUOUS
10
38.3619
20
-9.39381
11
38.3619
21
-9.01286
0
LINE
8
BLACK
6
CONTINUOUS
10
38.3619
20
-9.01286
11
38.2667
21
-8.82238
0
LINE
8
BLACK
6
CONTINUOUS
10
38.2667
20
-8.82238
11
38.1714
21
-8.72714
0
LINE
8
BLACK
6
CONTINUOUS
10
38.1714
20
-8.72714
11
37.981
21
-8.6319
0
LINE
8
BLACK
6
CONTINUOUS
10
40.419
20
-9.77476
11
40.419
21
-7.77476
0
LINE
8
BLACK
6
CONTINUOUS
10
41.2762
20
-9.77476
11
41.2762
21
-8.72714
0
LINE
8
BLACK
6
CONTINUOUS
10
41.2762
20
-8.72714
11
41.181
21
-8.53667
0
LINE
8
BLACK
6
CONTINUOUS
10
41.181
20
-8.53667
11
40.9905
21
-8.44143
0
LINE
8
BLACK
6
CONTINUOUS
10
40.9905
20
-8.44143
11
40.7048
21
-8.44143
0
LINE
8
BLACK
6
CONTINUOUS
10
40.7048
20
-8.44143
11
40.5143
21
-8.53667
0
LINE
8
BLACK
6
CONTINUOUS
10
40.5143
20
-8.53667
11
40.419
21
-8.6319
0
LINE
8
BLACK
6
CONTINUOUS
10
42.5143
20
-9.77476
11
42.3238
21
-9.67952
0
LINE
8
BLACK
6
CONTINUOUS
10
42.3238
20
-9.67952
11
42.2286
21
-9.58428
0
LINE
8
BLACK
6
CONTINUOUS
10
42.2286
20
-9.58428
11
42.1333
21
-9.39381
0
LINE
8
BLACK
6
CONTINUOUS
10
42.1333
20
-9.39381
11
42.1333
21
-8.82238
0
LINE
8
BLACK
6
CONTINUOUS
10
42.1333
20
-8.82238
11
42.2286
21
-8.6319
0
LINE
8
BLACK
6
CONTINUOUS
10
42.2286
20
-8.6319
11
42.3238
21
-8.53667
0
LINE
8
BLACK
6
CONTINUOUS
10
42.3238
20
-8.53667
11
42.5143
21
-8.44143
0
LINE
8
BLACK
6
CONTINUOUS
10
42.5143
20
-8.44143
11
42.8
21
-8.44143
0
LINE
8
BLACK
6
CONTINUOUS
10
42.8
20
-8.44143
11
42.9905
21
-8.53667
0
LINE
8
BLACK
6
CONTINUOUS
10
42.9905
20
-8.53667
11
43.0857
21
-8.6319
0
LINE
8
BLACK
6
CONTINUOUS
10
43.0857
20
-8.6319
11
43.181
21
-8.82238
0
LINE
8
BLACK
6
CONTINUOUS
10
43.181
20
-8.82238
11
43.181
21
-9.39381
0
LINE
8
BLACK
6
CONTINUOUS
10
43.181
20
-9.39381
11
43.0857
21
-9.58428
0
LINE
8
BLACK
6
CONTINUOUS
10
43.0857
20
-9.58428
11
42.9905
21
-9.67952
0
LINE
8
BLACK
6
CONTINUOUS
10
42.9905
20
-9.67952
11
42.8
21
-9.77476
0
LINE
8
BLACK
6
CONTINUOUS
10
42.8
20
-9.77476
11
42.5143
21
-9.77476
0
LINE
8
BLACK
6
CONTINUOUS
10
44.3238
20
-9.77476
11
44.1333
21
-9.67952
0
LINE
8
BLACK
6
CONTINUOUS
10
44.1333
20
-9.67952
11
44.0381
21
-9.48905
0
LINE
8
BLACK
6
CONTINUOUS
10
44.0381
20
-9.48905
11
44.0381
21
-7.77476
0
LINE
8
BLACK
6
CONTINUOUS
10
45.8476
20
-9.67952
11
45.6571
21
-9.77476
0
LINE
8
BLACK
6
CONTINUOUS
10
45.6571
20
-9.77476
11
45.2762
21
-9.77476
0
LINE
8
BLACK
6
CONTINUOUS
10
45.2762
20
-9.77476
11
45.0857
21
-9.67952
0
LINE
8
BLACK
6
CONTINUOUS
10
45.0857
20
-9.67952
11
44.9905
21
-9.48905
0
LINE
8
BLACK
6
CONTINUOUS
10
44.9905
20
-9.48905
11
44.9905
21
-8.72714
0
LINE
8
BLACK
6
CONTINUOUS
10
44.9905
20
-8.72714
11
45.0857
21
-8.53667
0
LINE
8
BLACK
6
CONTINUOUS
10
45.0857
20
-8.53667
11
45.2762
21
-8.44143
0
LINE
8
BLACK
6
CONTINUOUS
10
45.2762
20
-8.44143
11
45.6571
21
-8.44143
0
LINE
8
BLACK
6
CONTINUOUS
10
45.6571
20
-8.44143
11
45.8476
21
-8.53667
0
LINE
8
BLACK
6
CONTINUOUS
10
45.8476
20
-8.53667
11
45.9429
21
-8.72714
0
LINE
8
BLACK
6
CONTINUOUS
10
45.9429
20
-8.72714
11
45.9429
21
-8.91762
0
LINE
8
BLACK
6
CONTINUOUS
10
45.9429
20
-8.91762
11
44.9905
21
-9.10809
0
LINE
8
BLACK
6
CONTINUOUS
10
46.7048
20
-9.67952
11
46.8952
21
-9.77476
0
LINE
8
BLACK
6
CONTINUOUS
10
46.8952
20
-9.77476
11
47.2762
21
-9.77476
0
LINE
8
BLACK
6
CONTINUOUS
10
47.2762
20
-9.77476
11
47.4667
21
-9.67952
0
LINE
8
BLACK
6
CONTINUOUS
10
47.4667
20
-9.67952
11
47.5619
21
-9.48905
0
LINE
8
BLACK
6
CONTINUOUS
10
47.5619
20
-9.48905
11
47.5619
21
-9.39381
0
LINE
8
BLACK
6
CONTINUOUS
10
47.5619
20
-9.39381
11
47.4667
21
-9.20333
0
LINE
8
BLACK
6
CONTINUOUS
10
47.4667
20
-9.20333
11
47.2762
21
-9.10809
0
LINE
8
BLACK
6
CONTINUOUS
10
47.2762
20
-9.10809
11
46.9905
21
-9.10809
0
LINE
8
BLACK
6
CONTINUOUS
10
46.9905
20
-9.10809
11
46.8
21
-9.01286
0
LINE
8
BLACK
6
CONTINUOUS
10
46.8
20
-9.01286
11
46.7048
21
-8.82238
0
LINE
8
BLACK
6
CONTINUOUS
10
46.7048
20
-8.82238
11
46.7048
21
-8.72714
0
LINE
8
BLACK
6
CONTINUOUS
10
46.7048
20
-8.72714
11
46.8
21
-8.53667
0
LINE
8
BLACK
6
CONTINUOUS
10
46.8
20
-8.53667
11
46.9905
21
-8.44143
0
LINE
8
BLACK
6
CONTINUOUS
10
46.9905
20
-8.44143
11
47.2762
21
-8.44143
0
LINE
8
BLACK
6
CONTINUOUS
10
47.2762
20
-8.44143
11
47.4667
21
-8.53667
0
LINE
8
BLACK
6
CONTINUOUS
10
48.2286
20
-10.5367
11
48.3238
21
-10.4414
0
LINE
8
BLACK
6
CONTINUOUS
10
48.3238
20
-10.4414
11
48.5143
21
-10.1557
0
LINE
8
BLACK
6
CONTINUOUS
10
48.5143
20
-10.1557
11
48.6095
21
-9.96524
0
LINE
8
BLACK
6
CONTINUOUS
10
48.6095
20
-9.96524
11
48.7048
21
-9.67952
0
LINE
8
BLACK
6
CONTINUOUS
10
48.7048
20
-9.67952
11
48.8
21
-9.20333
0
LINE
8
BLACK
6
CONTINUOUS
10
48.8
20
-9.20333
11
48.8
21
-8.82238
0
LINE
8
BLACK
6
CONTINUOUS
10
48.8
20
-8.82238
11
48.7048
21
-8.34619
0
LINE
8
BLACK
6
CONTINUOUS
10
48.7048
20
-8.34619
11
48.6095
21
-8.06048
0
LINE
8
BLACK
6
CONTINUOUS
10
48.6095
20
-8.06048
11
48.5143
21
-7.87
0
LINE
8
BLACK
6
CONTINUOUS
10
48.5143
20
-7.87
11
48.3238
21
-7.58428
0
LINE
8
BLACK
6
CONTINUOUS
10
48.3238
20
-7.58428
11
48.2286
21
-7.48905
  0
ENDSEC
  0
EOF
