M48
; DRILL file {KiCad (6.99.0-1732-g4cd48cd5c9)} date Thu Apr 28 03:51:33 2022
; FORMAT={-:-/ absolute / metric / decimal}
; #@! TF.CreationDate,2022-04-28T03:51:33-03:00
; #@! TF.GenerationSoftware,Kicad,Pcbnew,(6.99.0-1732-g4cd48cd5c9)
; #@! TF.FileFunction,Plated,1,2,PTH
FMAT,2
METRIC
; #@! TA.AperFunction,Plated,PTH,ViaDrill
T1C0.400
; #@! TA.AperFunction,Plated,PTH,ComponentDrill
T2C1.000
%
G90
G05
T1
X180.975Y-136.525
T2
X106.045Y-81.915
X106.045Y-84.455
X108.585Y-81.915
X108.585Y-84.455
X111.125Y-81.915
X111.125Y-84.455
X113.665Y-81.915
X113.665Y-84.455
X116.205Y-81.915
X116.205Y-84.455
X118.745Y-81.915
X118.745Y-84.455
X121.285Y-81.915
X121.285Y-84.455
X123.825Y-81.915
X123.825Y-84.455
X133.35Y-61.595
X133.35Y-64.135
X133.35Y-66.675
X133.35Y-69.215
X133.35Y-71.755
X133.35Y-74.295
X133.35Y-76.835
X133.35Y-79.375
X133.35Y-81.915
X133.35Y-84.455
X133.35Y-86.995
X133.35Y-89.535
X133.35Y-92.075
X133.35Y-94.615
X133.35Y-97.155
X133.35Y-99.695
X133.35Y-102.235
X133.354Y-56.518
X133.354Y-59.058
X158.75Y-56.515
X158.75Y-59.055
X158.75Y-61.595
X158.75Y-64.135
X158.75Y-66.675
X158.75Y-69.215
X158.75Y-71.755
X158.75Y-74.295
X158.75Y-76.835
X158.75Y-79.375
X158.75Y-81.915
X158.75Y-84.455
X158.75Y-86.995
X158.75Y-89.535
X158.75Y-92.075
X158.75Y-94.615
X158.75Y-97.155
X158.75Y-99.695
X158.75Y-102.235
X175.91Y-61.765
X175.91Y-64.305
X175.91Y-66.845
X175.91Y-69.385
X175.91Y-71.925
X175.91Y-74.465
X175.91Y-77.005
X175.91Y-79.545
X175.91Y-85.71
X175.91Y-88.25
X175.91Y-90.79
X175.91Y-93.33
X175.91Y-95.87
X175.91Y-98.41
X175.91Y-100.95
X175.91Y-103.49
X175.91Y-109.655
X175.91Y-112.195
X175.91Y-114.735
X175.91Y-117.275
X175.91Y-119.815
X175.91Y-122.355
X175.91Y-124.895
X175.91Y-127.435
T0
M30
